<?xml version="1.0" standalone="no"?>
<!DOCTYPE svg PUBLIC "-//W3C//DTD SVG 1.1//EN" "http://www.w3.org/Graphics/SVG/1.1/DTD/svg11.dtd" >
<svg xmlns="http://www.w3.org/2000/svg">
<metadata></metadata>
<defs>
<font id="bo_nxalt_bold" horiz-adv-x="1146" >
<font-face units-per-em="2048" ascent="1638" descent="-410" />
<missing-glyph horiz-adv-x="1064" />
<glyph horiz-adv-x="2048" />
<glyph horiz-adv-x="2048" />
<glyph unicode="&#xd;" horiz-adv-x="2048" />
<glyph unicode=" "  horiz-adv-x="1064" />
<glyph unicode="&#x09;" horiz-adv-x="1064" />
<glyph unicode="&#xa0;" horiz-adv-x="1064" />
<glyph unicode="!" horiz-adv-x="471" d="M174 31v143q0 26 18 44t44 18t43.5 -18t17.5 -44v-143q0 -25 -17.5 -42.5t-43.5 -17.5t-44 17.5t-18 42.5zM174 430v1014q0 26 18 43.5t44 17.5t43.5 -17.5t17.5 -43.5v-1014q0 -26 -17.5 -43.5t-43.5 -17.5t-44 17.5t-18 43.5z" />
<glyph unicode="&#x22;" horiz-adv-x="819" d="M184 1167v277q0 26 18 43.5t44 17.5t43.5 -17.5t17.5 -43.5v-277q0 -26 -17.5 -43.5t-43.5 -17.5t-44 17.5t-18 43.5zM512 1167v277q0 26 17.5 43.5t43.5 17.5t44 -17.5t18 -43.5v-277q0 -26 -18 -43.5t-44 -17.5t-43.5 17.5t-17.5 43.5z" />
<glyph unicode="#" d="M143 369q0 26 18 43.5t44 17.5h65l72 614h-55q-26 0 -44 18t-18 44t18 43.5t44 17.5h69l33 283q3 26 23 42t45 13q26 -3 42 -22.5t13 -44.5l-31 -271h285l33 283q3 26 22.5 42t44.5 13q26 -3 42.5 -22.5t13.5 -44.5l-31 -271h51q26 0 44 -17.5t18 -43.5t-18 -44t-44 -18 h-65l-72 -614h55q26 0 44 -17.5t18 -43.5t-18 -44t-44 -18h-69l-33 -282q-3 -23 -21 -38.5t-41 -15.5h-6q-26 3 -42 22t-13 44l31 270h-285l-33 -282q-3 -23 -20.5 -38.5t-40.5 -15.5h-6q-26 3 -42.5 22t-13.5 44l31 270h-51q-26 0 -44 18t-18 44zM395 430h285l72 614h-285z " />
<glyph unicode="$" d="M143 393q0 26 18 44t44 18t43.5 -18t17.5 -44q0 -111 70.5 -197t175.5 -108v696l-115 66q-84 47 -133 130t-49 179q0 131 85 229.5t212 120.5v17q0 26 17.5 43.5t43.5 17.5t44 -17.5t18 -43.5v-17q127 -22 212 -120.5t85 -229.5q0 -25 -18 -43t-44 -18t-43.5 18t-17.5 43 q0 81 -49 142.5t-125 82.5v-528l147 -82q103 -59 162.5 -161t59.5 -220q0 -162 -105.5 -283.5t-263.5 -144.5v-14q0 -26 -18 -44t-44 -18t-43.5 18t-17.5 44v14q-158 23 -263.5 144.5t-105.5 283.5zM338 1159q0 -63 31.5 -117t87.5 -86l55 -30v458q-76 -21 -125 -82.5 t-49 -142.5zM635 88q105 22 175.5 108t70.5 197q0 84 -43 158t-115 115l-88 49v-627z" />
<glyph unicode="%" d="M143 1178q0 142 71.5 240t174.5 98t174.5 -98t71.5 -240t-71.5 -240t-174.5 -98t-174.5 98t-71.5 240zM146 12.5q-7 23.5 4 46.5l737 1414q12 23 36.5 30t47.5 -4q23 -12 30 -36.5t-4 -47.5l-737 -1413q-21 -31 -55 -31q-14 0 -29 6q-23 12 -30 35.5zM266 1178 q0 -91 38.5 -153t84.5 -62t84.5 62t38.5 153t-38.5 153t-84.5 62t-84.5 -62t-38.5 -153zM512 297q0 142 71.5 240t174.5 98t174.5 -98t71.5 -240t-71.5 -239t-174.5 -97t-174.5 97t-71.5 239zM635 297q0 -91 38.5 -153t84.5 -62t84.5 62t38.5 153t-38.5 153t-84.5 62 t-84.5 -62t-38.5 -153z" />
<glyph unicode="&#x26;" d="M143 375q0 95 42.5 179t119.5 144l113 86l-142 220q-51 82 -51 176q0 138 102 237t246 99t246.5 -99t102.5 -237q0 -78 -34 -146.5t-97 -118.5l-209 -159l288 -453q11 42 11 72q0 25 17.5 43t43.5 18t44 -18t18 -43q0 -106 -52 -199l54 -84q7 -10 18 -10q26 0 43.5 -18 t17.5 -44q0 -25 -17.5 -42t-43.5 -17q-77 0 -121 64l-33 49q-119 -113 -297 -113t-304 121t-126 293zM266 375q0 -122 90 -207.5t217 -85.5q67 0 127.5 26.5t102.5 71.5l-320 500l-102 -78q-115 -89 -115 -227zM348 1180q0 -57 33 -111l133 -209l201 154q84 65 84 166 q0 88 -66 150.5t-160 62.5t-159.5 -62.5t-65.5 -150.5z" />
<glyph unicode="'" horiz-adv-x="471" d="M174 1167v277q0 26 18 43.5t44 17.5t43.5 -17.5t17.5 -43.5v-277q0 -26 -17.5 -43.5t-43.5 -17.5t-44 17.5t-18 43.5z" />
<glyph unicode="(" horiz-adv-x="798" d="M143 737q0 344 120 561.5t310 217.5q26 0 44 -18t18 -44t-18 -43.5t-44 -17.5q-87 0 -157 -85.5t-110 -236t-40 -334.5t40 -334t110 -235.5t157 -85.5q26 0 44 -18t18 -44q0 -25 -18 -42t-44 -17q-126 0 -224 97.5t-152 274.5t-54 404z" />
<glyph unicode=")" horiz-adv-x="798" d="M164 20q0 26 17.5 44t43.5 18q87 0 157 85.5t110 235.5t40 334t-40 334.5t-110 236t-157 85.5q-26 0 -43.5 17.5t-17.5 43.5t17.5 44t43.5 18q190 0 310 -217.5t120 -561.5q0 -227 -54 -404t-152 -274.5t-224 -97.5q-26 0 -43.5 17t-17.5 42z" />
<glyph unicode="*" d="M175 909.5q4 25.5 24 40.5l272 207l-272 207q-20 15 -24 40.5t11 45.5t40.5 23.5t45.5 -11.5l240 -182v164q0 26 17.5 43.5t43.5 17.5t44 -17.5t18 -43.5v-164l239 182q20 15 46 11.5t41 -23.5t11 -45.5t-24 -40.5l-272 -207l272 -207q20 -15 24 -40.5t-11 -45.5 q-18 -24 -50 -24q-22 0 -37 12l-239 182v-164q0 -26 -18 -43.5t-44 -17.5t-43.5 17.5t-17.5 43.5v164l-240 -182q-15 -12 -36 -12q-32 0 -50 24q-15 20 -11 45.5z" />
<glyph unicode="+" d="M174 737q0 26 18 44t44 18h276v276q0 26 17.5 44t43.5 18t44 -18t18 -44v-276h276q26 0 44 -18t18 -44t-18 -43.5t-44 -17.5h-276v-277q0 -26 -18 -43.5t-44 -17.5t-43.5 17.5t-17.5 43.5v277h-276q-26 0 -44 17.5t-18 43.5z" />
<glyph unicode="," horiz-adv-x="819" d="M164 -152q0 26 17.5 44t43.5 18q51 0 87 27.5t36 64.5v172q0 26 18 44t44 18t43.5 -18t17.5 -44v-172q0 -89 -72.5 -152t-173.5 -63q-26 0 -43.5 17.5t-17.5 43.5z" />
<glyph unicode="-" d="M174 737q0 26 18 44t44 18h675q26 0 44 -18t18 -44t-18 -43.5t-44 -17.5h-675q-26 0 -44 17.5t-18 43.5z" />
<glyph unicode="." horiz-adv-x="819" d="M348 31v143q0 26 18 44t44 18t43.5 -18t17.5 -44v-143q0 -25 -17.5 -42.5t-43.5 -17.5t-44 17.5t-18 42.5z" />
<glyph unicode="/" d="M177.5 10.5q-8.5 23.5 2.5 46.5l676 1413q10 23 34.5 31.5t47.5 -2.5q23 -10 31.5 -34.5t-2.5 -47.5l-676 -1413q-17 -33 -55 -33q-15 0 -27 6q-23 10 -31.5 33.5z" />
<glyph unicode="0" d="M143 737q0 344 120 561.5t310 217.5t310.5 -217.5t120.5 -561.5q0 -227 -54.5 -404t-152.5 -274.5t-224 -97.5t-224 97.5t-152 274.5t-54 404zM266 737q0 -184 40 -334t110 -235.5t157 -85.5t157.5 85.5t110.5 235.5t40 334t-40 334.5t-110.5 236t-157.5 85.5t-157 -85.5 t-110 -236t-40 -334.5z" />
<glyph unicode="1" horiz-adv-x="542" d="M81 1290q0 24 19 43l164 164q25 28 66 14q39 -16 39 -57v-1423q0 -25 -18 -42.5t-44 -17.5t-43.5 17.5t-17.5 42.5v1276l-60 -60q-19 -19 -43 -19t-43 19t-19 43z" />
<glyph unicode="2" d="M143 31q0 15 11 37l696 1019q31 45 31 93q0 86 -91.5 149.5t-216.5 63.5q-127 0 -217 -80t-90 -193q0 -26 -17.5 -43.5t-43.5 -17.5t-44 17.5t-18 43.5q0 163 126 279.5t304 116.5t304.5 -99t126.5 -237q0 -86 -54 -162l-631 -926h623q26 0 44 -17.5t18 -43.5 q0 -25 -18 -42.5t-44 -17.5h-737q-26 0 -44 17.5t-18 42.5z" />
<glyph unicode="3" d="M143 430q0 26 18 44t44 18t43.5 -18t17.5 -44q0 -145 89.5 -246.5t217.5 -101.5t218 101.5t90 246.5t-90 246.5t-218 101.5q-32 0 -53 31q-16 29 0 61l287 512h-520q-26 0 -44 18t-18 44t18 43.5t44 17.5h624q34 0 54 -30q16 -29 0 -62l-293 -524q144 -37 238 -165 t94 -294q0 -128 -57.5 -236t-157 -170.5t-216.5 -62.5t-216 62.5t-156.5 170.5t-57.5 236z" />
<glyph unicode="4" horiz-adv-x="1003" d="M152 369q-16 29 0 59l563 1055q9 18 27.5 26.5t39.5 3.5q22 -4 34.5 -20.5t12.5 -38.5v-1423q0 -25 -17.5 -42.5t-43.5 -17.5t-43.5 17.5t-17.5 42.5v307h-502q-32 0 -53 31zM307 461h400v747z" />
<glyph unicode="5" d="M143 414q0 25 18 43t44 18t43.5 -18t17.5 -43q0 -137 90 -234.5t217 -97.5t217.5 97.5t90.5 234.5q0 129 -90 220t-218 91q-114 0 -202 -78q-38 -33 -80 -12q-41 23 -33 72l100 745q3 23 21 38t41 15h502q26 0 43.5 -17.5t17.5 -43.5t-17.5 -44t-43.5 -18h-449l-78 -573 q86 39 178 39q179 0 305 -127t126 -307q0 -189 -126 -321t-305 -132t-304.5 132t-125.5 321z" />
<glyph unicode="6" d="M143 383q0 168 47 283l326 811q9 24 32.5 33.5t47.5 0.5t34 -32t1 -47l-275 -682q100 59 217 59q179 0 305 -124.5t126 -301.5q0 -175 -126.5 -298.5t-304.5 -123.5t-304 123.5t-126 298.5zM266 383q0 -125 90 -213t217 -88t217.5 88t90.5 213q0 126 -90 214.5t-218 88.5 t-217.5 -88.5t-89.5 -214.5z" />
<glyph unicode="7" horiz-adv-x="1064" d="M133 1444q0 26 18 43.5t44 17.5h675q33 0 50 -24q20 -26 10 -56l-461 -1423q-16 -41 -59 -41q-13 0 -19 2q-25 9 -36.5 30.5t-4.5 45.5l436 1343h-591q-26 0 -44 18t-18 44z" />
<glyph unicode="8" d="M143 453q0 131 57.5 245t153.5 179q-65 52 -102 125t-37 157q0 148 105 252.5t253 104.5t253.5 -104.5t105.5 -252.5q0 -84 -37 -157t-102 -125q96 -65 153.5 -179t57.5 -245q0 -134 -57.5 -247t-157 -179t-216.5 -66q-178 0 -304 144t-126 348zM266 453 q0 -154 90 -262.5t217 -108.5q128 0 218 108.5t90 262.5q0 131 -69.5 233.5t-176.5 128.5q-21 6 -34 22t-13 37q0 22 13 39t34 21q77 22 125.5 84.5t48.5 140.5q0 97 -69.5 165.5t-166.5 68.5t-166 -68.5t-69 -165.5q0 -78 48.5 -140.5t125.5 -84.5q21 -4 34 -21t13 -39 q0 -21 -13 -37t-34 -22q-107 -26 -176.5 -128.5t-69.5 -233.5z" />
<glyph unicode="9" d="M143 1092q0 175 126 299.5t304 124.5t304.5 -124.5t126.5 -299.5q0 -165 -48 -283l-325 -809q-16 -39 -58 -39q-10 0 -22 4q-24 9 -34 31.5t-1 46.5l275 682q-100 -59 -218 -59q-179 0 -304.5 124.5t-125.5 301.5zM266 1092q0 -126 90 -215t217 -89q128 0 218 89t90 215 q0 125 -90.5 213t-217.5 88t-217 -88t-90 -213z" />
<glyph unicode=":" horiz-adv-x="819" d="M348 31v143q0 26 18 44t44 18t43.5 -18t17.5 -44v-143q0 -25 -17.5 -42.5t-43.5 -17.5t-44 17.5t-18 42.5zM348 625v143q0 26 18 43.5t44 17.5t43.5 -17.5t17.5 -43.5v-143q0 -26 -17.5 -44t-43.5 -18t-44 18t-18 44z" />
<glyph unicode=";" horiz-adv-x="819" d="M164 -152q0 26 17.5 44t43.5 18q51 0 87 27.5t36 64.5v172q0 26 18 44t44 18t43.5 -18t17.5 -44v-172q0 -89 -72.5 -152t-173.5 -63q-26 0 -43.5 17.5t-17.5 43.5zM348 625v143q0 26 18 43.5t44 17.5t43.5 -17.5t17.5 -43.5v-143q0 -26 -17.5 -44t-43.5 -18t-44 18 t-18 44z" />
<glyph unicode="&#x3c;" d="M143 725v25q0 36 31 53l737 407q23 12 47.5 6t36.5 -28q12 -23 6 -47.5t-28 -36.5l-662 -367l662 -366q22 -12 28 -36.5t-6 -47.5q-17 -31 -53 -31q-18 0 -31 8l-737 408q-31 17 -31 53z" />
<glyph unicode="=" d="M174 410q0 26 18 43.5t44 17.5h675q26 0 44 -17.5t18 -43.5t-18 -44t-44 -18h-675q-26 0 -44 18t-18 44zM174 788q0 26 18 44t44 18h675q26 0 44 -18t18 -44t-18 -43.5t-44 -17.5h-675q-26 0 -44 17.5t-18 43.5z" />
<glyph unicode="&#x3e;" d="M146 334.5q6 24.5 28 36.5l662 366l-662 367q-22 12 -28 36.5t6 47.5q12 22 36.5 28t47.5 -6l737 -407q31 -17 31 -53v-25q0 -36 -31 -53l-737 -408q-13 -8 -31 -8q-36 0 -53 31q-12 23 -6 47.5z" />
<glyph unicode="?" d="M143 1090q0 175 126 300.5t304 125.5t304.5 -125.5t126.5 -300.5q0 -157 -103 -279l-229 -264q-37 -43 -37 -107q0 -26 -18 -43.5t-44 -17.5t-43.5 17.5t-17.5 43.5q0 106 68 187l227 264q74 87 74 199q0 125 -90.5 214t-217.5 89t-217 -89t-90 -214q0 -26 -17.5 -44 t-43.5 -18t-44 18t-18 44zM512 31v143q0 26 17.5 44t43.5 18t44 -18t18 -44v-143q0 -25 -18 -42.5t-44 -17.5t-43.5 17.5t-17.5 42.5z" />
<glyph unicode="@" d="M143 737q0 387 108 583t322 196t322.5 -196t108.5 -583q0 -184 -25 -331l-2 -5q-10 -39 -45 -73.5t-92 -34.5q-76 0 -119 65q-58 -65 -148 -65q-32 0 -61.5 8.5t-64.5 37t-60 74.5t-42 129.5t-17 194.5t17 194.5t42 130t60 75t64.5 37t61.5 8.5q79 0 136 -54q21 25 49 25 q26 0 43.5 -18t17.5 -43v-639q0 -37 21 -37q10 0 18 16q23 141 23 305q0 106 -8.5 195t-21.5 152t-33.5 114t-39.5 82.5t-45.5 54.5t-45.5 34t-45 17t-38 6.5t-31 0.5t-31 -0.5t-38 -6.5t-45 -17t-45 -34t-45 -54.5t-40 -82.5t-33.5 -114t-21 -152t-8.5 -195 q0 -185 26 -318.5t58.5 -196t83 -97.5t76.5 -39t63 -4q126 0 197 102q13 20 38.5 24.5t45.5 -9.5q21 -15 25.5 -40t-9.5 -46q-110 -152 -297 -152q-430 0 -430 776zM451 737q0 -32 1.5 -63.5t8.5 -81.5t19 -86t36 -63t57 -27q40 0 67 37t38 97t14.5 102.5t3.5 84.5 t-3.5 84.5t-14.5 102.5t-38 97.5t-67 37.5t-67 -37.5t-37.5 -97.5t-14 -102t-3.5 -85z" />
<glyph unicode="A" d="M145 45l359 1413q4 22 20.5 34.5t38.5 12.5h21q22 0 38.5 -12.5t20.5 -34.5l358 -1413q2 -8 2 -15q0 -16 -9 -30q-13 -20 -38 -27q-4 -2 -14 -2q-21 0 -38 12.5t-21 32.5l-86 336h-447l-86 -336q-6 -23 -27.5 -36t-46.5 -7q-25 7 -38 27q-9 14 -9 30q0 7 2 15zM381 475 h385l-193 760z" />
<glyph unicode="B" d="M174 31v1413q0 26 18 43.5t44 17.5h337q161 0 275.5 -110t114.5 -265q0 -100 -50 -184.5t-135 -134.5q103 -61 164.5 -163.5t61.5 -223.5q0 -124 -63.5 -228.5t-172 -164.5t-236.5 -60h-296q-26 0 -44 17.5t-18 42.5zM297 92h235q144 0 246.5 97.5t102.5 234.5 t-102 233.5t-247 96.5h-235v-662zM297 877h235h41q110 0 188.5 74.5t78.5 178.5t-78.5 178t-188.5 74h-276v-505z" />
<glyph unicode="C" d="M143 737q0 768 430 768q48 0 92.5 -10.5t94 -39.5t89.5 -75.5t74.5 -125t53.5 -181.5q1 -6 1 -13q0 -18 -10 -34q-14 -22 -39.5 -25.5t-46.5 11t-26 39.5q-16 85 -42 148t-54 97t-63.5 54.5t-63 26t-60.5 5.5q-19 0 -31 -0.5t-38 -6.5t-44.5 -16.5t-45 -33t-45.5 -54 t-40 -81t-33.5 -112t-21 -150t-8.5 -191.5t8.5 -191.5t21 -150t33.5 -112t40 -81t45.5 -54t45 -33t44.5 -16.5t38 -6.5t31 -0.5q33 0 61 5.5t63 26t63 55t54 97.5t42 148q4 25 25.5 39.5t46.5 9.5q26 -3 40 -25q11 -16 10 -34q0 -6 -1 -13q-19 -103 -53.5 -181t-74.5 -124.5 t-89.5 -75.5t-94 -39t-92.5 -10q-430 0 -430 766z" />
<glyph unicode="D" d="M174 31v1413q0 26 18 43.5t44 17.5h337q89 0 159 -29.5t114.5 -71t76.5 -113.5t47 -129.5t23.5 -149t9.5 -141t1 -134.5t-1 -134.5t-9.5 -141t-23.5 -148.5t-47 -129t-76.5 -113t-114.5 -70.5t-159 -29.5h-337q-26 0 -44 17.5t-18 42.5zM297 92h276q116 0 182 61.5 t96 200t30 383.5t-30 383.5t-96 200t-182 61.5h-276v-1290z" />
<glyph unicode="E" d="M174 31v1413q0 26 18 43.5t44 17.5h675q26 0 44 -17.5t18 -43.5t-18 -44t-44 -18h-614v-583h553q26 0 43.5 -18t17.5 -44t-17.5 -43.5t-43.5 -17.5h-553v-584h614q26 0 44 -17.5t18 -43.5q0 -25 -18 -42.5t-44 -17.5h-675q-26 0 -44 17.5t-18 42.5z" />
<glyph unicode="F" d="M174 31v1413q0 26 18 43.5t44 17.5h675q26 0 44 -17.5t18 -43.5t-18 -44t-44 -18h-614v-583h553q26 0 43.5 -18t17.5 -44t-17.5 -43.5t-43.5 -17.5h-553v-645q0 -25 -17.5 -42.5t-43.5 -17.5t-44 17.5t-18 42.5z" />
<glyph unicode="G" d="M143 737q0 387 108 583t322 196q110 0 195 -56t139 -162q11 -22 3.5 -45.5t-29.5 -35.5q-23 -11 -47.5 -3.5t-36.5 29.5q-75 150 -224 150q-19 0 -31 -0.5t-38 -6.5t-45 -17t-45 -34t-45 -54.5t-40 -82.5t-33.5 -114t-21 -152t-8.5 -195q0 -185 26 -318.5t58.5 -196 t83 -97.5t76.5 -39t63 -4q24 0 40 1.5t50 13t58.5 32t55 64.5t50.5 105t35.5 158.5t18.5 219.5h-308q-26 0 -43.5 17.5t-17.5 43.5t17.5 44t43.5 18h369q26 0 44 -18t18 -44q0 -776 -431 -776q-430 0 -430 776z" />
<glyph unicode="H" d="M174 31v1413q0 26 18 43.5t44 17.5t43.5 -17.5t17.5 -43.5v-645h553v645q0 26 17.5 43.5t43.5 17.5t44 -17.5t18 -43.5v-1413q0 -25 -18 -42.5t-44 -17.5t-43.5 17.5t-17.5 42.5v645h-553v-645q0 -25 -17.5 -42.5t-43.5 -17.5t-44 17.5t-18 42.5z" />
<glyph unicode="I" horiz-adv-x="1064" d="M174 31q0 26 18 43.5t44 17.5h235v1290h-235q-26 0 -44 18t-18 44t18 43.5t44 17.5h593q26 0 44 -17.5t18 -43.5t-18 -44t-44 -18h-235v-1290h235q26 0 44 -17.5t18 -43.5q0 -25 -18 -42.5t-44 -17.5h-593q-26 0 -44 17.5t-18 42.5z" />
<glyph unicode="J" d="M143 414q0 25 18 43t44 18t43.5 -18t17.5 -43q0 -137 90 -234.5t217 -97.5t217.5 97.5t90.5 234.5v1030q0 26 17.5 43.5t43.5 17.5t44 -17.5t18 -43.5v-1030q0 -189 -126 -321t-305 -132t-304.5 132t-125.5 321z" />
<glyph unicode="K" d="M174 31v1413q0 26 18 43.5t44 17.5t43.5 -17.5t17.5 -43.5v-586l600 629q19 19 44 19t44 -17q19 -19 19 -44t-17 -44l-635 -664l635 -663q17 -19 17 -44t-19 -42q-20 -17 -43 -17q-26 0 -45 19l-600 626v-585q0 -25 -17.5 -42.5t-43.5 -17.5t-44 17.5t-18 42.5z" />
<glyph unicode="L" d="M174 31v1413q0 26 18 43.5t44 17.5t43.5 -17.5t17.5 -43.5v-1352h614q26 0 44 -17.5t18 -43.5q0 -25 -18 -42.5t-44 -17.5h-675q-26 0 -44 17.5t-18 42.5z" />
<glyph unicode="M" horiz-adv-x="1269" d="M174 31v1413q0 22 12.5 38.5t32.5 20.5q10 2 19 2q34 0 51 -30l346 -613l346 613q17 30 51 30q9 0 19 -2q20 -4 32.5 -20.5t12.5 -38.5v-1413q0 -25 -18 -42.5t-44 -17.5t-43.5 17.5t-17.5 42.5v1179l-285 -503q-17 -31 -53 -31t-53 31l-285 503v-1179q0 -25 -17.5 -42.5 t-43.5 -17.5t-44 17.5t-18 42.5z" />
<glyph unicode="N" d="M174 31v1413q0 26 18 43.5t44 17.5h20q42 0 55 -37l539 -1196v1172q0 26 17.5 43.5t43.5 17.5t44 -17.5t18 -43.5v-1413q0 -25 -18 -42.5t-44 -17.5h-20q-18 0 -33.5 10t-21.5 25l-539 1196v-1171q0 -25 -17.5 -42.5t-43.5 -17.5t-44 17.5t-18 42.5z" />
<glyph unicode="O" d="M143 737q0 387 108 583t322 196t322.5 -196t108.5 -583q0 -776 -431 -776q-430 0 -430 776zM266 737q0 -185 26 -318.5t58.5 -196t83 -97.5t76.5 -39t63 -4q25 0 41.5 1.5t52 14t60.5 35.5t56 71.5t51 115.5t33.5 174.5t13.5 242.5q0 106 -8.5 195t-21.5 152t-33.5 114 t-39.5 82.5t-45.5 54.5t-45.5 34t-45 17t-38 6.5t-31 0.5t-31 -0.5t-38 -6.5t-45 -17t-45 -34t-45 -54.5t-40 -82.5t-33.5 -114t-21 -152t-8.5 -195z" />
<glyph unicode="P" d="M174 31v1413q0 26 18 43.5t44 17.5h337q178 0 304.5 -121.5t126.5 -291.5q0 -172 -126.5 -294t-304.5 -122h-276v-645q0 -25 -17.5 -42.5t-43.5 -17.5t-44 17.5t-18 42.5zM297 799h276q128 0 218 86t90 207q0 120 -90.5 205t-217.5 85h-276v-583z" />
<glyph unicode="Q" d="M143 737q0 387 108 583t322 196t322.5 -196t108.5 -583q0 -384 -107 -579l88 -84q19 -17 19 -42t-17 -42q-19 -19 -45 -19q-23 0 -43 17l-76 69q-101 -96 -250 -96q-430 0 -430 776zM266 737q0 -185 26 -318.5t58.5 -196t83 -97.5t76.5 -39t63 -4q101 0 162 61l-205 197 q-19 17 -19 42t17 44q19 19 44 20t44 -18l189 -182q76 162 76 491q0 106 -8.5 195t-21.5 152t-33.5 114t-39.5 82.5t-45.5 54.5t-45.5 34t-45 17t-38 6.5t-31 0.5t-31 -0.5t-38 -6.5t-45 -17t-45 -34t-45 -54.5t-40 -82.5t-33.5 -114t-21 -152t-8.5 -195z" />
<glyph unicode="R" d="M174 31v1413q0 26 18 43.5t44 17.5h337q178 0 304.5 -121.5t126.5 -291.5q0 -147 -95 -260t-239 -146l327 -627q11 -23 4 -46.5t-30 -35.5q-15 -6 -29 -6q-34 0 -55 31l-350 674h-240v-645q0 -25 -17.5 -42.5t-43.5 -17.5t-44 17.5t-18 42.5zM297 799h276q128 0 218 86 t90 207q0 120 -90.5 205t-217.5 85h-276v-583z" />
<glyph unicode="S" d="M143 393q0 26 18 44t44 18t43.5 -18t17.5 -44q0 -129 90 -220t217 -91q128 0 218 91t90 220q0 84 -43 158t-115 115l-326 184q-84 47 -133 130t-49 179q0 148 105 252.5t253 104.5t253.5 -104.5t105.5 -252.5q0 -25 -18 -43t-44 -18t-43.5 18t-17.5 43q0 97 -69.5 165.5 t-166.5 68.5t-166 -68.5t-69 -165.5q0 -63 31.5 -117t87.5 -86l325 -182q103 -59 162.5 -161t59.5 -220q0 -180 -126 -306t-305 -126t-304.5 126t-125.5 306z" />
<glyph unicode="T" d="M174 1444q0 26 18 43.5t44 17.5h675q26 0 44 -17.5t18 -43.5t-18 -44t-44 -18h-276v-1351q0 -25 -18 -42.5t-44 -17.5t-43.5 17.5t-17.5 42.5v1351h-276q-26 0 -44 18t-18 44z" />
<glyph unicode="U" d="M143 414v1030q0 26 18 43.5t44 17.5t43.5 -17.5t17.5 -43.5v-1030q0 -137 90 -234.5t217 -97.5t217.5 97.5t90.5 234.5v1030q0 26 17.5 43.5t43.5 17.5t44 -17.5t18 -43.5v-1030q0 -189 -126 -321t-305 -132t-304.5 132t-125.5 321z" />
<glyph unicode="V" d="M145 1430q-2 8 -2 15q0 16 9 31q13 21 38 27q8 2 15 2q15 0 31 -9q22 -13 28 -38l309 -1218l310 1218q6 25 27 38q14 9 31 9q7 0 15 -2q25 -6 38 -27q9 -14 9 -31q0 -7 -2 -15l-358 -1414q-4 -20 -20.5 -32.5t-38.5 -12.5h-21q-22 0 -38.5 12.5t-20.5 32.5z" />
<glyph unicode="W" horiz-adv-x="1228" d="M113 1436v8q1 21 13 38q16 20 40 23h8q20 -1 38 -13q20 -16 24 -40l141 -1157l158 807q3 22 20 36.5t39 14.5h41q22 0 39 -14.5t20 -36.5l158 -807l141 1157q3 24 23 40q17 13 39 13h8q25 -3 41 -23q13 -17 12 -38v-8l-174 -1413q-3 -22 -20.5 -37t-40.5 -15h-41 q-22 0 -39.5 13.5t-20.5 33.5l-166 854l-165 -854q-3 -20 -20.5 -33.5t-39.5 -13.5h-41q-23 0 -40.5 15t-20.5 37z" />
<glyph unicode="X" d="M146 12q-3 9 -3 19q0 14 7 28l354 678l-354 678q-7 14 -7 29q0 8 3 18q7 24 30 37q14 7 29 7q9 0 19 -3q24 -7 36 -30l313 -603l314 603q13 23 37 30q10 3 18 3q15 0 29 -7q23 -13 30 -37q3 -10 3 -18q0 -15 -7 -29l-354 -678l354 -678q7 -14 7 -28q0 -9 -3 -19 q-7 -24 -30 -35q-15 -6 -29 -6q-34 0 -55 31l-314 602l-313 -602q-21 -31 -55 -31q-14 0 -29 6q-23 11 -30 35z" />
<glyph unicode="Y" d="M146 1462q7 25 30 37q14 7 29 7q9 0 19 -3q24 -7 36 -30l313 -603l314 603q12 23 37 30q9 3 18 3q15 0 29 -7q23 -12 30 -37q3 -9 3 -18q0 -15 -7 -29l-362 -692v-692q0 -25 -18 -42.5t-44 -17.5t-43.5 17.5t-17.5 42.5v692l-362 692q-7 14 -7 29q0 9 3 18z" />
<glyph unicode="Z" d="M150 57l661 1325h-575q-26 0 -44 18t-18 44t18 43.5t44 17.5h675q35 0 54 -28q16 -29 2 -60l-662 -1325h637q26 0 44 -17.5t18 -43.5q0 -25 -18 -42.5t-44 -17.5h-737q-34 0 -53 29q-9 14 -9 29q0 14 7 28z" />
<glyph unicode="[" horiz-adv-x="819" d="M184 31v1413q0 26 18 43.5t44 17.5h327q26 0 44 -17.5t18 -43.5t-18 -44t-44 -18h-266v-1290h266q26 0 44 -17.5t18 -43.5q0 -25 -18 -42.5t-44 -17.5h-327q-26 0 -44 17.5t-18 42.5z" />
<glyph unicode="\" d="M177.5 1464.5q8.5 24.5 31.5 34.5q23 11 47.5 2.5t34.5 -31.5l676 -1413q11 -23 2.5 -46.5t-31.5 -33.5q-12 -6 -27 -6q-39 0 -55 33l-676 1413q-11 23 -2.5 47.5z" />
<glyph unicode="]" horiz-adv-x="819" d="M184 31q0 26 18 43.5t44 17.5h266v1290h-266q-26 0 -44 18t-18 44t18 43.5t44 17.5h327q26 0 44 -17.5t18 -43.5v-1413q0 -25 -18 -42.5t-44 -17.5h-327q-26 0 -44 17.5t-18 42.5z" />
<glyph unicode="^" d="M175.5 918.5q-5.5 24.5 8.5 46.5l328 512q16 28 51 28h21q35 0 51 -28l328 -512q14 -22 8.5 -46.5t-27.5 -37.5q-18 -11 -33 -11q-35 0 -51 29l-287 447l-286 -447q-13 -22 -37.5 -27t-46.5 9q-22 13 -27.5 37.5z" />
<glyph unicode="_" d="M174 -121q0 26 18 44t44 18h675q26 0 44 -18t18 -44t-18 -43.5t-44 -17.5h-675q-26 0 -44 17.5t-18 43.5z" />
<glyph unicode="`" horiz-adv-x="819" d="M185.5 1452.5q3.5 25.5 23.5 40.5t45.5 12t40.5 -24l215 -277q15 -20 11.5 -45.5t-23.5 -40.5q-15 -12 -37 -12q-31 0 -49 24l-215 277q-15 20 -11.5 45.5z" />
<glyph unicode="a" horiz-adv-x="1126" d="M123 399q0 183 126 312t304 129q180 0 307 -133v61q0 26 18 43.5t44 17.5t43.5 -17.5t17.5 -43.5v-737q0 -25 -17.5 -42.5t-43.5 -17.5t-44 17.5t-18 42.5v61q-125 -131 -307 -131q-179 0 -304.5 127.5t-125.5 310.5zM246 399q0 -131 90 -224t217 -93t217 93t90 224 t-90 224.5t-217 93.5t-217 -93.5t-90 -224.5z" />
<glyph unicode="b" horiz-adv-x="1126" d="M143 31v1413q0 26 18 43.5t44 17.5t43.5 -17.5t17.5 -43.5v-737q127 133 307 133q117 0 216.5 -59t157 -160.5t57.5 -221.5q0 -183 -126 -310.5t-305 -127.5q-182 0 -307 131v-61q0 -25 -17.5 -42.5t-43.5 -17.5t-44 17.5t-18 42.5zM266 399q0 -131 90 -224t217 -93 t217.5 93t90.5 224t-90.5 224.5t-217.5 93.5t-217 -93.5t-90 -224.5z" />
<glyph unicode="c" horiz-adv-x="1105" d="M143 399q0 183 126 312t304 129q115 0 214.5 -59.5t158.5 -162.5q8 -14 8 -29q0 -8 -2 -17q-6 -24 -30 -37q-22 -12 -46 -5.5t-36 29.5q-41 72 -113.5 115t-153.5 43q-127 0 -217 -93.5t-90 -224.5t90 -224t217 -93q81 0 153.5 43t113.5 115q12 23 36 29.5t46 -5.5 q24 -14 30 -38q2 -9 2 -16q0 -15 -8 -30q-58 -103 -157.5 -161t-215.5 -58q-179 0 -304.5 127.5t-125.5 310.5z" />
<glyph unicode="d" horiz-adv-x="1126" d="M123 399q0 183 126 312t304 129q180 0 307 -133v737q0 26 18 43.5t44 17.5t43.5 -17.5t17.5 -43.5v-1413q0 -25 -17.5 -42.5t-43.5 -17.5t-44 17.5t-18 42.5v61q-125 -131 -307 -131q-179 0 -304.5 127.5t-125.5 310.5zM246 399q0 -131 90 -224t217 -93t217 93t90 224 t-90 224.5t-217 93.5t-217 -93.5t-90 -224.5z" />
<glyph unicode="e" horiz-adv-x="1105" d="M123 399q0 183 126 312t304 129t304 -129t126 -312q0 -26 -17.5 -43.5t-43.5 -17.5h-670q20 -110 105 -183t196 -73q144 0 233 92q17 19 42 19t44 -19q19 -17 19 -42t-19 -44q-124 -127 -319 -127q-179 0 -304.5 127.5t-125.5 310.5zM252 461h602q-20 110 -105 183 t-196 73t-196 -73t-105 -183z" />
<glyph unicode="f" horiz-adv-x="1024" d="M154 901q0 26 17.5 44t43.5 18h236v301q0 100 72 170.5t173 70.5h113q26 0 43.5 -17.5t17.5 -43.5t-17.5 -44t-43.5 -18h-113q-51 0 -87 -34.5t-36 -83.5v-301h236q26 0 43.5 -18t17.5 -44t-17.5 -43.5t-43.5 -17.5h-236v-840q0 -25 -17.5 -42t-43.5 -17t-43.5 17 t-17.5 42v840h-236q-26 0 -43.5 17.5t-17.5 43.5z" />
<glyph unicode="g" horiz-adv-x="1126" d="M123 420q0 174 126 297t304 123q180 0 307 -127v55q0 26 18 43.5t44 17.5t43.5 -17.5t17.5 -43.5v-727q0 -168 -126 -288t-304 -120q-160 0 -285 103q-19 17 -21 42t15 44q15 20 40.5 22.5t45.5 -14.5q90 -74 205 -74q127 0 217 84t90 201v86q-127 -127 -307 -127 q-178 0 -304 123t-126 297zM246 420q0 -123 90 -210t217 -87t217 87t90 210t-90 210t-217 87t-217 -87t-90 -210z" />
<glyph unicode="h" d="M174 31v1413q0 26 18 43.5t44 17.5t43.5 -17.5t17.5 -43.5v-709q120 105 276 105q166 0 283 -109.5t117 -263.5v-436q0 -25 -18 -42.5t-44 -17.5t-43.5 17.5t-17.5 42.5v436q0 103 -81.5 176.5t-195.5 73.5t-195 -73.5t-81 -176.5v-436q0 -25 -17.5 -42.5t-43.5 -17.5 t-44 17.5t-18 42.5z" />
<glyph unicode="i" horiz-adv-x="1024" d="M154 31q0 26 17.5 43.5t43.5 17.5h236v748h-154q-26 0 -43.5 17.5t-17.5 43.5t17.5 44t43.5 18h215q26 0 43.5 -18t17.5 -44v-809h236q26 0 43.5 -17.5t17.5 -43.5q0 -25 -17.5 -42.5t-43.5 -17.5h-594q-26 0 -43.5 17.5t-17.5 42.5zM451 1167v277q0 26 17.5 43.5 t43.5 17.5t43.5 -17.5t17.5 -43.5v-277q0 -26 -17.5 -43.5t-43.5 -17.5t-43.5 17.5t-17.5 43.5z" />
<glyph unicode="j" horiz-adv-x="788" d="M123 -305q0 26 17.5 43.5t43.5 17.5q127 0 217.5 97.5t90.5 234.5v752h-154q-26 0 -44 17.5t-18 43.5t18 44t44 18h215q26 0 43.5 -18t17.5 -44v-813q0 -188 -126 -321.5t-304 -133.5q-26 0 -43.5 18t-17.5 44zM492 1167v277q0 26 17.5 43.5t43.5 17.5t43.5 -17.5 t17.5 -43.5v-277q0 -26 -17.5 -43.5t-43.5 -17.5t-43.5 17.5t-17.5 43.5z" />
<glyph unicode="k" d="M174 31v1413q0 26 18 43.5t44 17.5t43.5 -17.5t17.5 -43.5v-959l616 336q22 12 46 5.5t36 -29.5q8 -14 8 -29q-1 -8 -3 -17q-6 -24 -29 -36l-576 -316l576 -315q23 -12 29 -36q2 -8 3 -17q0 -15 -8 -29q-17 -31 -53 -31q-17 0 -29 9l-616 333v-282q0 -25 -17.5 -42.5 t-43.5 -17.5t-44 17.5t-18 42.5z" />
<glyph unicode="l" horiz-adv-x="706" d="M174 207v1237q0 26 18 43.5t44 17.5t43.5 -17.5t17.5 -43.5v-1237q0 -47 36 -81t87 -34h112q26 0 44 -17.5t18 -43.5q0 -25 -18 -42.5t-44 -17.5h-112q-102 0 -174 69t-72 167z" />
<glyph unicode="m" horiz-adv-x="1269" d="M174 31v737q0 26 18 43.5t44 17.5q37 0 53 -32q68 43 147 43q121 0 199 -88q78 88 201 88q107 0 183.5 -72.5t76.5 -173.5v-563q0 -25 -18 -42.5t-44 -17.5t-43.5 17.5t-17.5 42.5v563q0 51 -40 87t-97 36q-58 0 -99 -36t-41 -87v-563q0 -25 -17.5 -42.5t-43.5 -17.5 t-44 17.5t-18 42.5v563q0 51 -40 87t-97 36q-58 0 -98.5 -36t-40.5 -87v-563q0 -25 -17.5 -42.5t-43.5 -17.5t-44 17.5t-18 42.5z" />
<glyph unicode="n" d="M174 31v737q0 26 18 43.5t44 17.5t43.5 -17.5t17.5 -43.5v-33q120 105 276 105q166 0 283 -109.5t117 -263.5v-436q0 -25 -18 -42.5t-44 -17.5t-43.5 17.5t-17.5 42.5v436q0 103 -81.5 176.5t-195.5 73.5t-195 -73.5t-81 -176.5v-436q0 -25 -17.5 -42.5t-43.5 -17.5 t-44 17.5t-18 42.5z" />
<glyph unicode="o" horiz-adv-x="1105" d="M123 399q0 183 126 312t304 129t304 -129t126 -312t-125.5 -310.5t-304.5 -127.5t-304.5 127.5t-125.5 310.5zM246 399q0 -131 90 -224t217 -93t217 93t90 224t-90 224.5t-217 93.5t-217 -93.5t-90 -224.5z" />
<glyph unicode="p" horiz-adv-x="1126" d="M143 -305v1073q0 26 18 43.5t44 17.5t43.5 -17.5t17.5 -43.5v-61q127 133 307 133q117 0 216.5 -59t157 -160.5t57.5 -221.5q0 -183 -126 -310.5t-305 -127.5q-182 0 -307 131v-397q0 -26 -17.5 -44t-43.5 -18t-44 18t-18 44zM266 399q0 -132 89.5 -224.5t217.5 -92.5 q127 0 217.5 93t90.5 224t-90.5 224.5t-217.5 93.5t-217 -93t-90 -225z" />
<glyph unicode="q" horiz-adv-x="1126" d="M123 399q0 183 126 312t304 129q180 0 307 -133v61q0 26 18 43.5t44 17.5t43.5 -17.5t17.5 -43.5v-1073q0 -26 -17.5 -44t-43.5 -18t-44 18t-18 44v397q-125 -131 -307 -131q-179 0 -304.5 127.5t-125.5 310.5zM246 399q0 -131 90 -224t217 -93t217 93t90 224t-90 224.5 t-217 93.5t-217 -93.5t-90 -224.5z" />
<glyph unicode="r" horiz-adv-x="983" d="M174 31v737q0 26 18 43.5t44 17.5t43.5 -17.5t17.5 -43.5v-150q87 102 215.5 162t275.5 60q26 0 44 -18t18 -44t-18 -43.5t-44 -17.5q-133 0 -246 -57.5t-179 -156.5t-66 -216v-256q0 -25 -17.5 -42.5t-43.5 -17.5t-44 17.5t-18 42.5z" />
<glyph unicode="s" d="M143 238q0 26 18 43.5t44 17.5t43.5 -17.5t17.5 -43.5q0 -59 89 -107.5t218 -48.5q34 0 68 2.5t79.5 11t79 23t57.5 41.5t24 63q0 46 -24 77t-95 48l-377 94q-56 14 -94.5 38t-55.5 52.5t-23.5 51.5t-6.5 47q0 27 7 52t30.5 55t61.5 51.5t107.5 36t161.5 14.5 q231 0 347 -101q20 -15 22.5 -40.5t-14.5 -45.5t-42.5 -21.5t-43.5 13.5q-88 72 -269 72q-31 0 -64 -2.5t-78.5 -10t-74 -26.5t-28.5 -47q0 -47 88 -70l375 -92q119 -31 166 -98t47 -148q0 -126 -113 -194t-318 -68q-182 0 -306 80t-124 197z" />
<glyph unicode="t" horiz-adv-x="1024" d="M154 901q0 26 17.5 44t43.5 18h236v481q0 26 17.5 43.5t43.5 17.5t43.5 -17.5t17.5 -43.5v-481h236q26 0 43.5 -18t17.5 -44t-17.5 -43.5t-43.5 -17.5h-236v-633q0 -47 36 -81t87 -34h113q26 0 43.5 -17.5t17.5 -43.5q0 -25 -17.5 -42.5t-43.5 -17.5h-113q-101 0 -173 69 t-72 167v633h-236q-26 0 -43.5 17.5t-17.5 43.5z" />
<glyph unicode="u" d="M174 332v436q0 26 18 43.5t44 17.5t43.5 -17.5t17.5 -43.5v-436q0 -103 81 -176.5t195 -73.5t195.5 73.5t81.5 176.5v436q0 26 17.5 43.5t43.5 17.5t44 -17.5t18 -43.5v-737q0 -25 -18 -42.5t-44 -17.5t-43.5 17.5t-17.5 42.5v32q-117 -102 -277 -102 q-166 0 -282.5 108.5t-116.5 262.5z" />
<glyph unicode="v" d="M147 788q8 24 31 35q13 6 27 6q11 0 21 -3q24 -8 34 -31l313 -645l314 645q11 23 35 31q10 3 20 3q14 0 27 -6q23 -11 31 -35q3 -10 3 -20q0 -14 -6 -27l-358 -737q-18 -33 -55 -33h-21q-37 0 -55 33l-358 737q-6 13 -6 27q0 10 3 20z" />
<glyph unicode="w" d="M74 752q-2 8 -2 16q0 16 8 30q12 22 37 29q8 2 16 2q16 0 31 -8q22 -12 29 -37l176 -606l125 410q6 19 22.5 31t36.5 12h41q20 0 36.5 -12t22.5 -31l125 -410l176 606q7 25 29 37q15 8 31 8q8 0 16 -2q25 -7 37 -29q8 -14 8 -30q0 -8 -2 -16l-215 -738q-6 -19 -22.5 -31 t-36.5 -12h-41q-20 0 -37 12t-23 29l-125 414l-124 -414q-6 -17 -23 -29t-37 -12h-41q-20 0 -36.5 12t-22.5 31z" />
<glyph unicode="x" d="M143 30q0 25 19 44l325 325l-325 326q-19 19 -19 44t19 42q19 19 43 19t43 -19l325 -326l326 326q19 19 43 19t43 -19q19 -17 19 -42t-19 -44l-326 -326l326 -325q19 -19 19 -44t-19 -40q-19 -19 -43 -19t-43 19l-326 323l-325 -323q-19 -19 -43 -19t-43 19 q-19 15 -19 40z" />
<glyph unicode="y" d="M147 788q8 25 31 35q13 6 27 6q10 0 21 -3q24 -8 34 -31l313 -641l314 641q10 23 35 31q10 3 20 3q14 0 27 -6q23 -10 31 -35q3 -10 3 -20q0 -14 -6 -27l-434 -886q-38 -78 -113.5 -124t-164.5 -46h-49q-26 0 -44 17.5t-18 43.5t18 43.5t44 17.5h49q54 0 99.5 27.5 t68.5 73.5l53 106l-356 727q-6 13 -6 27q0 10 3 20z" />
<glyph unicode="z" d="M147 6q-4 13 -4 24q0 24 17 44l608 633h-532q-26 0 -44 17.5t-18 43.5t18 43.5t44 17.5h675q42 0 58 -36q4 -13 4 -24q0 -24 -17 -44l-608 -633h594q26 0 44 -17.5t18 -43.5q0 -25 -18 -42.5t-44 -17.5h-737q-18 0 -34 10t-24 25z" />
<glyph unicode="{" horiz-adv-x="839" d="M174 737q0 26 18 44t44 18q51 0 86.5 33.5t35.5 80.5v355q0 98 72.5 167.5t173.5 69.5q26 0 44 -17.5t18 -43.5t-18 -44t-44 -18q-51 0 -87 -33.5t-36 -80.5v-355q0 -107 -82 -176q82 -69 82 -176v-354q0 -47 36 -81t87 -34q26 0 44 -17.5t18 -43.5q0 -25 -18 -42.5 t-44 -17.5q-102 0 -174 69t-72 167v354q0 47 -35.5 81t-86.5 34q-26 0 -44 17.5t-18 43.5z" />
<glyph unicode="|" horiz-adv-x="471" d="M174 31v1413q0 26 18 43.5t44 17.5t43.5 -17.5t17.5 -43.5v-1413q0 -25 -17.5 -42.5t-43.5 -17.5t-44 17.5t-18 42.5z" />
<glyph unicode="}" horiz-adv-x="839" d="M174 31q0 26 18 43.5t44 17.5q51 0 86.5 34t35.5 81v354q0 107 82 176q-82 69 -82 176v355q0 47 -35.5 80.5t-86.5 33.5q-26 0 -44 18t-18 44t18 43.5t44 17.5q101 0 173 -69.5t72 -167.5v-355q0 -47 36 -80.5t87 -33.5q26 0 44 -18t18 -44t-18 -43.5t-44 -17.5 q-51 0 -87 -34t-36 -81v-354q0 -98 -72 -167t-173 -69q-26 0 -44 17.5t-18 42.5z" />
<glyph unicode="~" d="M175.5 730.5q-5.5 25.5 8.5 47.5q35 56 92 87.5t123 31.5q111 0 191 -86l59 -66q37 -43 99 -43q72 0 112 62q13 22 37.5 27t46.5 -9q22 -13 27.5 -38.5t-8.5 -47.5q-35 -55 -92 -85.5t-123 -30.5q-113 0 -191 84l-59 65q-39 45 -99 45q-72 0 -112 -63 q-13 -22 -37.5 -27.5t-46.5 8.5q-22 13 -27.5 38.5z" />
<glyph unicode="&#xa5;" d="M146 1462.5q7 24.5 30 36.5q23 11 47.5 4t36.5 -30l313 -603l314 603q12 23 36.5 30t47.5 -4q23 -12 30 -36.5t-4 -47.5l-323 -616h207q26 0 43.5 -18t17.5 -44t-17.5 -43.5t-43.5 -17.5h-246v-215h246q26 0 43.5 -18t17.5 -44t-17.5 -43.5t-43.5 -17.5h-246v-307 q0 -25 -18 -42.5t-44 -17.5t-43.5 17.5t-17.5 42.5v307h-246q-26 0 -43.5 17.5t-17.5 43.5t17.5 44t43.5 18h246v215h-246q-26 0 -43.5 17.5t-17.5 43.5t17.5 44t43.5 18h207l-323 616q-11 23 -4 47.5z" />
<glyph unicode="&#xa9;" horiz-adv-x="1208" d="M143 737q0 125 62 231t168 168t231 62t231 -62t168 -168t62 -231t-62 -231t-168 -168t-231 -62t-231 62t-168 168t-62 231zM266 737q0 -139 99 -238.5t239 -99.5t239 99.5t99 238.5t-99 238.5t-239 99.5t-239 -99.5t-99 -238.5zM338 737q0 110 78 188.5t188 78.5 q111 0 189 -78q15 -15 15 -36.5t-15 -35.5q-15 -15 -36.5 -15t-35.5 15q-47 47 -117 47q-68 0 -116 -48.5t-48 -115.5t48 -115.5t116 -48.5q69 0 117 48q13 15 35 15t37 -15q15 -13 15 -35t-15 -37q-78 -78 -189 -78q-110 0 -188 78t-78 188z" />
<glyph unicode="&#xad;" d="M174 737q0 26 18 44t44 18h675q26 0 44 -18t18 -44t-18 -43.5t-44 -17.5h-675q-26 0 -44 17.5t-18 43.5z" />
<glyph unicode="&#xae;" d="M154 1096q0 173 123 296.5t296 123.5t296.5 -123.5t123.5 -296.5t-123.5 -296.5t-296.5 -123.5t-296 123.5t-123 296.5zM256 1096q0 -131 93.5 -224.5t223.5 -93.5q131 0 224.5 94t93.5 224t-93.5 223.5t-224.5 93.5t-224 -93.5t-93 -223.5zM420 911v379q0 17 12 29 t29 12h129q61 0 104 -41t43 -100q0 -44 -26.5 -81t-67.5 -52l80 -123q9 -15 5.5 -31.5t-17.5 -25.5q-14 -7 -23 -7q-22 0 -35 19l-100 160h-51v-138q0 -17 -12 -29t-29 -12t-29 12t-12 29zM502 1130h88q28 0 46.5 17.5t18.5 42.5t-18.5 42t-46.5 17h-88v-119z" />
<glyph unicode="&#xb7;" d="M389 614v246q0 26 18 44t44 18h245q26 0 44 -18t18 -44v-246q0 -26 -18 -43.5t-44 -17.5h-245q-26 0 -44 17.5t-18 43.5zM512 676h123v123h-123v-123z" />
<glyph unicode="&#xdf;" horiz-adv-x="1310" d="M188 729q0 176 119 311q-48 28 -66 86t3 121q19 57 63 93t96 36q25 0 43 -6q67 -23 91 -90q17 -40 10 -96q53 12 108 12q57 0 109 -12q-7 56 10 96q24 67 90 90q18 6 43 6q52 0 96.5 -36t63.5 -93q21 -63 3 -121t-66 -86q118 -134 118 -311q0 -101 -42 -192.5 t-117 -157.5q28 -45 28 -117q0 -71 -29 -117.5t-73 -46.5t-73.5 47t-29.5 117v19q-65 -19 -131 -19t-131 19v-19q0 -71 -29 -117.5t-73 -46.5t-73.5 47t-29.5 117t29 117q-76 67 -118 158.5t-42 191.5zM272 696q6 -79 44.5 -149.5t101.5 -120.5h4q45 0 74 -47 q78 -35 159 -35q82 0 160 35q29 47 74 47h4q63 50 101 120.5t44 149.5q-64 -53 -164.5 -83.5t-218.5 -30.5t-218.5 30.5t-164.5 83.5zM281 813q7 -17 18 -31q45 133 137 213q15 13 35.5 12t34.5 -16q12 -15 10.5 -35.5t-16.5 -33.5l-2 -2q39 -22 65 -33l11 6q10 6 14 10 q4 3 13 9t13 8q-16 16 -16 38q0 23 17 40.5t40 17.5t40.5 -17.5t17.5 -40.5q0 -21 -17 -38q5 -2 14 -8.5t13 -8.5q4 -4 15 -10l10 -6q26 11 65 33q-2 0 -2 2q-15 13 -16.5 33.5t10.5 35.5q14 15 34 16t35 -12q94 -81 138 -213q11 14 18 31q-25 126 -127 211q-53 12 -92 57 q-81 33 -156 33q-74 0 -155 -33q-39 -45 -92 -57q-102 -85 -127 -211zM319.5 1149.5q10.5 -34.5 38.5 -43.5q29 -10 60 11.5t43 58.5q12 40 0 75q-12 31 -39 41q-6 2 -19 2q-25 0 -48.5 -20.5t-32.5 -52.5q-13 -37 -2.5 -71.5zM383 721q111 -57 272 -57q162 0 273 57 q-24 82 -60 135q-96 -53 -123 -53q-7 0 -15.5 3t-13 5.5t-18.5 11t-20 11.5q-3 2 -11.5 7t-11.5 7q-3 -2 -11 -7t-11 -7q-6 -3 -16.5 -9.5t-15.5 -9t-12 -6.5t-12.5 -5t-11.5 -1q-27 0 -123 53q-35 -50 -59 -135zM401 262q0 -54 21 -80q20 25 20 80t-20 80q-21 -26 -21 -80z M850 1176q12 -37 42.5 -58.5t59.5 -11.5q28 9 39 43.5t-2 71.5q-9 32 -33 52.5t-49 20.5q-12 0 -18 -2q-27 -10 -39 -41q-12 -35 0 -75zM868 262q0 -54 21 -80q20 25 20 80t-20 80q-21 -26 -21 -80z" />
<glyph unicode="&#x2000;" horiz-adv-x="793" />
<glyph unicode="&#x2001;" horiz-adv-x="1587" />
<glyph unicode="&#x2002;" horiz-adv-x="793" />
<glyph unicode="&#x2003;" horiz-adv-x="1587" />
<glyph unicode="&#x2004;" horiz-adv-x="529" />
<glyph unicode="&#x2005;" horiz-adv-x="396" />
<glyph unicode="&#x2006;" horiz-adv-x="264" />
<glyph unicode="&#x2007;" horiz-adv-x="264" />
<glyph unicode="&#x2008;" horiz-adv-x="198" />
<glyph unicode="&#x2009;" horiz-adv-x="317" />
<glyph unicode="&#x200a;" horiz-adv-x="88" />
<glyph unicode="&#x2010;" d="M174 737q0 26 18 44t44 18h675q26 0 44 -18t18 -44t-18 -43.5t-44 -17.5h-675q-26 0 -44 17.5t-18 43.5z" />
<glyph unicode="&#x2011;" d="M174 737q0 26 18 44t44 18h675q26 0 44 -18t18 -44t-18 -43.5t-44 -17.5h-675q-26 0 -44 17.5t-18 43.5z" />
<glyph unicode="&#x2012;" d="M174 737q0 26 18 44t44 18h675q26 0 44 -18t18 -44t-18 -43.5t-44 -17.5h-675q-26 0 -44 17.5t-18 43.5z" />
<glyph unicode="&#x2013;" d="M174 737q0 26 18 44t44 18h675q26 0 44 -18t18 -44t-18 -43.5t-44 -17.5h-675q-26 0 -44 17.5t-18 43.5z" />
<glyph unicode="&#x2014;" horiz-adv-x="1228" d="M92 737q0 26 18 44t44 18h921q26 0 44 -18t18 -44t-18 -43.5t-44 -17.5h-921q-26 0 -44 17.5t-18 43.5z" />
<glyph unicode="&#x2018;" horiz-adv-x="645" d="M174 1116v172q0 90 72 153.5t174 63.5q26 0 43.5 -17.5t17.5 -43.5t-17.5 -44t-43.5 -18q-51 0 -87 -28t-36 -66v-172q0 -26 -17.5 -43.5t-43.5 -17.5t-44 17.5t-18 43.5z" />
<glyph unicode="&#x2019;" horiz-adv-x="645" d="M164 1116q0 26 17.5 44t43.5 18q51 0 87 28t36 66v172q0 26 18 43.5t44 17.5t43.5 -17.5t17.5 -43.5v-172q0 -90 -72 -153.5t-174 -63.5q-26 0 -43.5 17.5t-17.5 43.5z" />
<glyph unicode="&#x201a;" horiz-adv-x="819" d="M164 -152q0 26 17.5 44t43.5 18q51 0 87 27.5t36 64.5v172q0 26 18 44t44 18t43.5 -18t17.5 -44v-172q0 -89 -72.5 -152t-173.5 -63q-26 0 -43.5 17.5t-17.5 43.5z" />
<glyph unicode="&#x201c;" horiz-adv-x="921" d="M164 1116v172q0 90 72 153.5t174 63.5q26 0 43.5 -17.5t17.5 -43.5t-17.5 -44t-43.5 -18q-51 0 -87 -28t-36 -66v-172q0 -26 -18 -43.5t-44 -17.5t-43.5 17.5t-17.5 43.5zM471 1116v172q0 90 72 153.5t174 63.5q26 0 43.5 -17.5t17.5 -43.5t-17.5 -44t-43.5 -18 q-51 0 -87 -28t-36 -66v-172q0 -26 -18 -43.5t-44 -17.5t-43.5 17.5t-17.5 43.5z" />
<glyph unicode="&#x201d;" horiz-adv-x="921" d="M143 1116q0 26 18 44t44 18q51 0 87 28t36 66v172q0 26 17.5 43.5t43.5 17.5t44 -17.5t18 -43.5v-172q0 -90 -72 -153.5t-174 -63.5q-26 0 -44 17.5t-18 43.5zM451 1116q0 26 17.5 44t43.5 18q51 0 87 28t36 66v172q0 26 17.5 43.5t43.5 17.5t44 -17.5t18 -43.5v-172 q0 -90 -72 -153.5t-174 -63.5q-26 0 -43.5 17.5t-17.5 43.5z" />
<glyph unicode="&#x201e;" horiz-adv-x="921" d="M143 -152q0 26 18 44t44 18q51 0 87 27.5t36 64.5v172q0 26 17.5 44t43.5 18t44 -18t18 -44v-172q0 -89 -72.5 -152t-173.5 -63q-26 0 -44 17.5t-18 43.5zM451 -152q0 26 17.5 44t43.5 18q51 0 87 27.5t36 64.5v172q0 26 17.5 44t43.5 18t44 -18t18 -44v-172 q0 -89 -72.5 -152t-173.5 -63q-26 0 -43.5 17.5t-17.5 43.5z" />
<glyph unicode="&#x2022;" horiz-adv-x="614" d="M246 -121q0 34 24 58t58 24t58 -24t24 -58t-24 -58t-58 -24t-58 24t-24 58z" />
<glyph unicode="&#x202f;" horiz-adv-x="317" />
<glyph unicode="&#x205f;" horiz-adv-x="396" />
<glyph unicode="&#x2122;" d="M154 1454q0 22 14.5 36.5t36.5 14.5h246q22 0 36.5 -14.5t14.5 -36.5t-14.5 -36.5t-36.5 -14.5h-72v-615q0 -22 -14.5 -36.5t-36.5 -14.5t-37 14.5t-15 36.5v615h-71q-22 0 -36.5 14.5t-14.5 36.5zM532 788v666q0 19 11 32.5t28 16.5q18 5 34.5 -2t23.5 -24l135 -258 l133 258q7 17 23 24t34 2q17 -3 28 -16.5t11 -32.5v-666q0 -22 -14.5 -36.5t-36.5 -14.5t-36.5 14.5t-14.5 36.5v455l-82 -160q-17 -28 -45 -28q-30 0 -47 28l-82 160v-455q0 -22 -14.5 -36.5t-36.5 -14.5t-37 14.5t-15 36.5z" />
<glyph unicode="&#x25fc;" horiz-adv-x="829" d="M0 0v829h829v-829h-829z" />
</font>
</defs>
</svg>
