<?xml version="1.0" standalone="no"?>
<!DOCTYPE svg PUBLIC "-//W3C//DTD SVG 1.1//EN" "http://www.w3.org/Graphics/SVG/1.1/DTD/svg11.dtd" >
<svg xmlns="http://www.w3.org/2000/svg">
<metadata></metadata>
<defs>
<font id="bo_nxalt_medium" horiz-adv-x="1064" >
<font-face units-per-em="2048" ascent="1638" descent="-410" />
<missing-glyph horiz-adv-x="983" />
<glyph horiz-adv-x="2048" />
<glyph horiz-adv-x="2048" />
<glyph unicode="&#xd;" horiz-adv-x="2048" />
<glyph unicode=" "  horiz-adv-x="983" />
<glyph unicode="&#x09;" horiz-adv-x="983" />
<glyph unicode="&#xa0;" horiz-adv-x="983" />
<glyph unicode="!" horiz-adv-x="389" d="M164 0v205q0 12 9.5 21.5t21.5 9.5t21 -9.5t9 -21.5v-205q0 -11 -9 -20t-21 -9t-21.5 9t-9.5 20zM164 399v1076q0 12 9.5 21t21.5 9t21 -9t9 -21v-1076q0 -12 -9 -21t-21 -9t-21.5 9t-9.5 21z" />
<glyph unicode="&#x22;" horiz-adv-x="737" d="M174 1137v338q0 12 9.5 21t21.5 9t21.5 -9t9.5 -21v-338q0 -12 -9.5 -21.5t-21.5 -9.5t-21.5 9.5t-9.5 21.5zM502 1137v338q0 12 9 21t21 9t21.5 -9t9.5 -21v-338q0 -12 -9.5 -21.5t-21.5 -9.5t-21 9.5t-9 21.5z" />
<glyph unicode="#" d="M133 369q0 12 9.5 21t21.5 9h96l74 676h-88q-12 0 -21.5 9.5t-9.5 21.5t9.5 21.5t21.5 9.5h96l37 342q2 12 12 19.5t23 6.5q12 -2 19.5 -12t6.5 -23l-37 -333h349l36 342q1 12 12 20t23 6t20 -12t7 -23l-37 -333h88q12 0 21.5 -9.5t9.5 -21.5t-9.5 -21.5t-21.5 -9.5h-96 l-74 -676h88q12 0 21.5 -9t9.5 -21t-9.5 -21.5t-21.5 -9.5h-96l-37 -340q-2 -11 -10.5 -19t-20.5 -8h-4q-12 2 -19.5 11.5t-6.5 21.5l37 334h-349l-37 -340q-2 -11 -10 -19t-20 -8h-4q-12 2 -20 11.5t-7 21.5l37 334h-88q-12 0 -21.5 9.5t-9.5 21.5zM322 399h348l73 676 h-348z" />
<glyph unicode="$" d="M133 379q0 12 9.5 21.5t21.5 9.5t21.5 -9.5t9.5 -21.5q0 -139 89 -241.5t218 -114.5v784l-131 78q-76 44 -121 123t-45 170q0 131 86 227t211 108v43q0 12 9 21.5t21 9.5t21.5 -9.5t9.5 -21.5v-43q125 -12 211 -108t86 -227q0 -12 -9.5 -21.5t-21.5 -9.5t-21 9.5t-9 21.5 q0 105 -68 183.5t-168 90.5v-610l164 -97q95 -55 150 -153.5t55 -212.5q0 -165 -106.5 -284.5t-262.5 -131.5v-43q0 -12 -9.5 -21.5t-21.5 -9.5t-21 9.5t-9 21.5v43q-156 12 -262.5 131.5t-106.5 284.5zM266 1178q0 -75 36 -139.5t99 -102.5l101 -57v573 q-100 -12 -168 -90.5t-68 -183.5zM563 23q129 12 218 114.5t89 241.5q0 98 -47 181.5t-127 131.5l-133 78v-747z" />
<glyph unicode="%" d="M133 1178q0 143 62 240.5t153 97.5t153 -97.5t62 -240.5t-62 -240.5t-153 -97.5t-153 97.5t-62 240.5zM135 -8.5q-4 11.5 2 22.5l737 1475q5 11 17 14.5t24 -2.5q11 -5 15 -17t-2 -24l-738 -1472q-7 -17 -26 -17q-6 0 -14 4q-11 5 -15 16.5zM195 1178q0 -113 45 -195 t108 -82t108.5 82t45.5 195t-45.5 194.5t-108.5 81.5t-108 -81.5t-45 -194.5zM502 297q0 143 62 240.5t153 97.5t153 -97.5t62 -240.5q0 -142 -62 -239t-153 -97t-153 97t-62 239zM563 297q0 -113 45.5 -195t108.5 -82t108 82t45 195t-45 194.5t-108 81.5t-108.5 -81.5 t-45.5 -194.5z" />
<glyph unicode="&#x26;" d="M133 358q0 90 39.5 172.5t110.5 139.5l135 108l-156 254q-47 77 -47 166q0 131 93.5 224.5t223.5 93.5t224 -94t94 -224q0 -72 -31 -137t-88 -111l-233 -186l340 -551q32 69 32 145q0 12 9.5 21.5t21.5 9.5t21.5 -9.5t9.5 -21.5q0 -110 -58 -206l66 -107q14 -25 43 -25 q12 0 21.5 -8.5t9.5 -19.5q0 -12 -9.5 -21.5t-21.5 -9.5q-63 0 -96 51l-51 86q-56 -65 -135 -101t-169 -36q-166 0 -282.5 115.5t-116.5 281.5zM195 358q0 -140 99 -239t238 -99q81 0 152 36t117 98l-350 571l-129 -102q-60 -50 -93.5 -119.5t-33.5 -145.5zM276 1198 q0 -72 37 -133l154 -248l225 180q46 37 71 89.5t25 111.5q0 106 -75 181t-181 75t-181 -75t-75 -181z" />
<glyph unicode="'" horiz-adv-x="389" d="M164 1137v338q0 12 9.5 21t21.5 9t21 -9t9 -21v-338q0 -12 -9 -21.5t-21 -9.5t-21.5 9.5t-9.5 21.5z" />
<glyph unicode="(" horiz-adv-x="716" d="M133 737q0 227 50 404.5t141 276t208 98.5q12 0 21.5 -9.5t9.5 -21.5t-9.5 -21.5t-21.5 -9.5q-97 0 -174 -92t-120 -255.5t-43 -369.5t43 -369.5t120 -255.5t174 -92q12 0 21.5 -8.5t9.5 -19.5q0 -12 -9.5 -21.5t-21.5 -9.5q-117 0 -207.5 97.5t-141 274.5t-50.5 404z " />
<glyph unicode=")" horiz-adv-x="716" d="M154 -8q0 11 9 19.5t21 8.5q97 0 174.5 92t120.5 255.5t43 369.5t-43 369.5t-120.5 255.5t-174.5 92q-12 0 -21 9.5t-9 21.5t9 21.5t21 9.5q117 0 208 -98.5t141.5 -276t50.5 -404.5t-50.5 -404t-141.5 -274.5t-208 -97.5q-12 0 -21 9.5t-9 21.5z" />
<glyph unicode="*" d="M164 873q1 12 10 20l311 264l-311 264q-9 8 -10 20t8 23q8 9 20 10t23 -8l287 -243v252q0 12 9 21t21 9t21.5 -9t9.5 -21v-252l287 243q11 9 23 8t20 -10q9 -11 8 -23t-10 -20l-311 -264l311 -264q9 -8 10 -20t-8 -23q-10 -10 -23 -10q-12 0 -20 8l-287 244v-252 q0 -12 -9.5 -21.5t-21.5 -9.5t-21 9.5t-9 21.5v252l-287 -244q-8 -8 -20 -8q-13 0 -23 10q-9 11 -8 23z" />
<glyph unicode="+" d="M164 737q0 12 9.5 21.5t21.5 9.5h307v307q0 12 9 21.5t21 9.5t21.5 -9.5t9.5 -21.5v-307h307q12 0 21.5 -9.5t9.5 -21.5t-9.5 -21t-21.5 -9h-307v-308q0 -12 -9.5 -21t-21.5 -9t-21 9t-9 21v308h-307q-12 0 -21.5 9t-9.5 21z" />
<glyph unicode="," horiz-adv-x="737" d="M154 -182q0 12 9 21t21 9q63 0 108.5 45t45.5 107v205q0 12 9.5 21.5t21.5 9.5t21 -9.5t9 -21.5v-205q0 -88 -63 -150.5t-152 -62.5q-12 0 -21 9.5t-9 21.5z" />
<glyph unicode="-" d="M164 737q0 12 9.5 21.5t21.5 9.5h675q12 0 21.5 -9.5t9.5 -21.5t-9.5 -21t-21.5 -9h-675q-12 0 -21.5 9t-9.5 21z" />
<glyph unicode="." horiz-adv-x="737" d="M338 0v205q0 12 9.5 21.5t21.5 9.5t21 -9.5t9 -21.5v-205q0 -11 -9 -20t-21 -9t-21.5 9t-9.5 20z" />
<glyph unicode="/" d="M165.5 -9q-4.5 12 0.5 21l676 1475q6 12 18.5 16.5t22.5 -0.5q12 -6 16.5 -18.5t-0.5 -22.5l-676 -1472q-9 -19 -28 -19q-9 0 -13 2q-12 6 -16.5 18z" />
<glyph unicode="0" d="M133 737q0 227 50 404.5t141 276t208 98.5t208 -98.5t141.5 -276t50.5 -404.5t-50.5 -404t-141.5 -274.5t-208 -97.5t-207.5 97.5t-141 274.5t-50.5 404zM195 737q0 -206 43 -369.5t120 -255.5t174 -92t174.5 92t120.5 255.5t43 369.5t-43 369.5t-120.5 255.5t-174.5 92 t-174 -92t-120 -255.5t-43 -369.5z" />
<glyph unicode="1" horiz-adv-x="460" d="M72 1320.5q0 13.5 8 22.5l164 164q16 12 35 6q18 -7 18 -28v-1485q0 -11 -9.5 -20t-21.5 -9t-21 9t-9 20v1411l-111 -113q-9 -8 -22.5 -8t-22.5 8q-8 9 -8 22.5z" />
<glyph unicode="2" d="M133 0q0 12 6 18l695 1065q36 53 36 115q0 106 -99 181t-239 75q-139 0 -238 -93t-99 -224q0 -12 -9.5 -21.5t-21.5 -9.5t-21.5 9.5t-9.5 21.5q0 157 116.5 268t282.5 111q165 0 282.5 -93.5t117.5 -224.5q0 -78 -47 -149l-666 -1018h682q12 0 21.5 -9.5t9.5 -21.5 q0 -11 -9.5 -20t-21.5 -9h-737q-12 0 -21.5 9t-9.5 20z" />
<glyph unicode="3" d="M133 399q0 12 9.5 21.5t21.5 9.5t21.5 -9.5t9.5 -21.5q0 -157 99 -268t238 -111q140 0 239 111t99 268t-99 268t-239 111q-15 0 -26 15q-9 15 0 30l315 621h-575q-12 0 -21.5 9.5t-9.5 21.5t9.5 21t21.5 9h624q16 0 27 -14q9 -15 0 -31l-315 -624q148 -19 249 -144 t101 -293q0 -183 -117 -310.5t-283 -127.5t-282.5 127.5t-116.5 310.5z" />
<glyph unicode="4" horiz-adv-x="921" d="M137 383q-9 15 0 31l563 1075q10 20 35 16q23 -8 23 -30v-1475q0 -11 -9.5 -20t-21.5 -9t-21.5 9t-9.5 20v369h-532q-16 0 -27 14zM215 430h481v920z" />
<glyph unicode="5" d="M133 399q0 12 9.5 21.5t21.5 9.5t21.5 -9.5t9.5 -21.5q0 -157 99 -268t238 -111q140 0 239 111t99 268q0 148 -99.5 253.5t-238.5 105.5q-129 0 -223 -88q-22 -22 -43 -11q-22 15 -20 41l102 779q2 11 10.5 18.5t20.5 7.5h502q12 0 21 -9t9 -21t-9 -21.5t-21 -9.5h-475 l-91 -692q98 67 217 67q166 0 283 -123.5t117 -296.5q0 -183 -117 -310.5t-283 -127.5t-282.5 127.5t-116.5 310.5z" />
<glyph unicode="6" d="M133 369q0 162 45 280l326 846q4 12 16 17.5t23 0.5q12 -4 17.5 -15.5t0.5 -22.5l-317 -824q120 127 288 127q166 0 283 -120t117 -289t-117 -288.5t-283 -119.5t-282.5 119.5t-116.5 288.5zM195 369q0 -145 98.5 -247t238.5 -102t239 102t99 247q0 144 -99 246t-239 102 t-238.5 -101.5t-98.5 -246.5z" />
<glyph unicode="7" horiz-adv-x="983" d="M123 1475q0 12 9.5 21t21.5 9h675q16 0 25 -12q10 -14 4 -27l-461 -1482q-7 -23 -28 -23q-7 0 -9 2q-12 3 -18.5 14.5t-1.5 22.5l448 1444h-634q-12 0 -21.5 9.5t-9.5 21.5z" />
<glyph unicode="8" d="M133 440q0 145 66.5 265t175.5 178q-77 43 -123.5 122.5t-46.5 172.5q0 140 96 239t231 99t231.5 -99.5t96.5 -238.5q0 -93 -46.5 -172.5t-123.5 -122.5q109 -58 175.5 -178t66.5 -265q0 -199 -117 -339t-283 -140t-282.5 140t-116.5 339zM195 440q0 -173 99 -296.5 t238 -123.5t238.5 123.5t99.5 296.5q0 149 -75.5 265t-192.5 147q-10 1 -17 9.5t-7 19.5q0 23 22 30q88 23 143.5 98t55.5 169q0 114 -78.5 195t-188.5 81t-188 -81t-78 -195q0 -94 55.5 -169t143.5 -98q22 -7 22 -30q0 -11 -7 -19.5t-17 -9.5q-117 -31 -192.5 -147 t-75.5 -265z" />
<glyph unicode="9" d="M133 1106q0 169 117 289.5t282 120.5t282.5 -120.5t117.5 -289.5q0 -163 -45 -281l-326 -843q-7 -21 -29 -21q-8 0 -10 2q-12 4 -17.5 16t-0.5 21l317 823q-120 -127 -289 -127q-165 0 -282 120.5t-117 289.5zM195 1106q0 -145 98.5 -246.5t238.5 -101.5t239 102t99 246 t-99 246t-239 102t-238.5 -101.5t-98.5 -246.5z" />
<glyph unicode=":" horiz-adv-x="737" d="M338 0v205q0 12 9.5 21.5t21.5 9.5t21 -9.5t9 -21.5v-205q0 -11 -9 -20t-21 -9t-21.5 9t-9.5 20zM338 594v205q0 12 9.5 21t21.5 9t21 -9t9 -21v-205q0 -12 -9 -21.5t-21 -9.5t-21.5 9.5t-9.5 21.5z" />
<glyph unicode=";" horiz-adv-x="737" d="M154 -182q0 12 9 21t21 9q63 0 108.5 45t45.5 107v205q0 12 9.5 21.5t21.5 9.5t21 -9.5t9 -21.5v-205q0 -88 -63 -150.5t-152 -62.5q-12 0 -21 9.5t-9 21.5zM338 594v205q0 12 9.5 21t21.5 9t21 -9t9 -21v-205q0 -12 -9 -21.5t-21 -9.5t-21.5 9.5t-9.5 21.5z" />
<glyph unicode="&#x3c;" d="M133 725v25q0 16 17 26l737 408q10 6 22.5 2.5t18.5 -15.5q6 -10 2.5 -22.5t-15.5 -18.5l-708 -393l708 -393q12 -6 15.5 -18.5t-2.5 -22.5q-10 -16 -27 -16q-6 0 -14 4l-737 407q-17 10 -17 27z" />
<glyph unicode="=" d="M164 410q0 12 9.5 21t21.5 9h675q12 0 21.5 -9t9.5 -21t-9.5 -21.5t-21.5 -9.5h-675q-12 0 -21.5 9.5t-9.5 21.5zM164 788q0 12 9.5 21.5t21.5 9.5h675q12 0 21.5 -9.5t9.5 -21.5t-9.5 -21t-21.5 -9h-675q-12 0 -21.5 9t-9.5 21z" />
<glyph unicode="&#x3e;" d="M134.5 325.5q3.5 12.5 15.5 18.5l708 393l-708 393q-12 6 -15.5 18.5t2.5 22.5q6 12 18.5 15.5t22.5 -2.5l737 -408q17 -10 17 -26v-25q0 -17 -17 -27l-737 -407q-8 -4 -14 -4q-17 0 -27 16q-6 10 -2.5 22.5z" />
<glyph unicode="?" d="M133 1102q0 171 117 292.5t282 121.5t282.5 -121.5t117.5 -292.5q0 -151 -96 -271l-228 -278q-45 -55 -45 -143q0 -12 -9.5 -21.5t-21.5 -9.5t-21 9.5t-9 21.5q0 113 59 182l227 278q82 102 82 232q0 146 -99 249t-239 103t-238.5 -103t-98.5 -249q0 -13 -9.5 -22 t-21.5 -9t-21.5 9t-9.5 22zM502 0v205q0 12 9 21.5t21 9.5t21.5 -9.5t9.5 -21.5v-205q0 -11 -9.5 -20t-21.5 -9t-21 9t-9 20z" />
<glyph unicode="@" d="M133 737q0 393 99 586t300 193t300.5 -193t99.5 -586q0 -169 -25 -340q-4 -31 -26 -60.5t-62 -29.5t-64.5 32.5t-27.5 88.5q-65 -121 -195 -121q-124 0 -190 111t-66 319t66 319t190 111q130 0 195 -120v59q0 12 9.5 21.5t21.5 9.5t21 -9.5t9 -21.5v-666q0 -28 8.5 -49.5 t22.5 -21.5q10 0 17 9.5t8 18.5l2 9q24 144 24 331q0 362 -84 539.5t-254 177.5t-253.5 -177.5t-83.5 -539.5t83.5 -539.5t253.5 -177.5q140 0 222 119q6 10 19 13t22 -5q10 -6 13 -19t-5 -22q-98 -145 -271 -145q-201 0 -300 192t-99 584zM338 737q0 -48 3.5 -91.5 t16 -96.5t32.5 -90.5t56.5 -63.5t85.5 -26t85.5 26t57 63.5t33 90.5t16 96.5t3.5 91.5t-3.5 92t-16 96.5t-33 90.5t-57 64t-85.5 26t-85.5 -26t-56.5 -64t-32.5 -91t-16 -96.5t-3.5 -91.5z" />
<glyph unicode="A" d="M133 8l359 1475q7 22 30 22h21q23 0 30 -22l359 -1475q1 -4 1 -7q0 -8 -5 -16q-7 -11 -19 -14h-8q-23 0 -31 23l-90 375h-495l-90 -375q-3 -12 -15 -19q-8 -5 -16 -5q-4 0 -8 1q-12 3 -19 14q-5 8 -5 16q0 3 1 7zM299 430h467l-234 956z" />
<glyph unicode="B" d="M164 0v1475q0 12 9.5 21t21.5 9h337q148 0 253.5 -105t105.5 -253q0 -112 -62.5 -202.5t-162.5 -129.5q119 -53 192.5 -162.5t73.5 -242.5q0 -183 -128.5 -311t-311.5 -128h-297q-12 0 -21.5 9t-9.5 20zM225 31h267q157 0 267.5 111t110.5 268t-110.5 267.5t-267.5 110.5 h-267v-757zM225 850h267h40q123 0 210 87t87 210t-87 210t-210 87h-307v-594z" />
<glyph unicode="C" d="M133 737q0 393 99 586t300 193q299 0 373 -431q1 -3 1 -7q0 -8 -6 -15q-8 -10 -19 -12q-12 -3 -22.5 4.5t-12.5 19.5q-67 379 -314 379q-170 0 -253.5 -177.5t-83.5 -539.5t83.5 -539.5t253.5 -177.5q247 0 314 379q2 12 12.5 20t22.5 5q11 -2 19 -12q5 -8 6 -16 q0 -3 -1 -7q-74 -428 -373 -428q-201 0 -300 192t-99 584z" />
<glyph unicode="D" d="M164 0v1475q0 12 9.5 21t21.5 9h337q77 0 138 -23t102.5 -60t71.5 -97.5t47 -121t26.5 -145t12 -155.5t2.5 -166t-2.5 -166t-12 -155t-26.5 -144.5t-47 -120.5t-71.5 -97t-102.5 -60t-138 -23h-337q-12 0 -21.5 9t-9.5 20zM225 31h307q60 0 108 16t83 45t61 76 t42.5 102.5t26 131t13.5 155t4 180.5q0 144 -8 247t-29.5 194.5t-59 147t-97.5 87t-144 31.5h-307v-1413z" />
<glyph unicode="E" d="M164 0v1475q0 12 9.5 21t21.5 9h675q12 0 21.5 -9t9.5 -21t-9.5 -21.5t-21.5 -9.5h-645v-676h584q12 0 21.5 -9.5t9.5 -21.5t-9.5 -21t-21.5 -9h-584v-676h645q12 0 21.5 -9.5t9.5 -21.5q0 -11 -9.5 -20t-21.5 -9h-675q-12 0 -21.5 9t-9.5 20z" />
<glyph unicode="F" d="M164 0v1475q0 12 9.5 21t21.5 9h675q12 0 21.5 -9t9.5 -21t-9.5 -21.5t-21.5 -9.5h-645v-676h584q12 0 21.5 -9.5t9.5 -21.5t-9.5 -21t-21.5 -9h-584v-707q0 -11 -9 -20t-21 -9t-21.5 9t-9.5 20z" />
<glyph unicode="G" d="M133 737q0 393 99 586t300 193q205 0 308 -207q4 -12 0 -24t-15 -17q-12 -6 -24.5 -2t-16.5 16q-85 172 -252 172q-170 0 -253.5 -177.5t-83.5 -539.5t83.5 -539.5t253.5 -177.5q332 0 338 687h-338q-12 0 -21 9t-9 21t9 21.5t21 9.5h369q12 0 21.5 -9.5t9.5 -21.5 q0 -392 -99.5 -584t-300.5 -192t-300 192t-99 584z" />
<glyph unicode="H" d="M164 0v1475q0 12 9.5 21t21.5 9t21 -9t9 -21v-707h615v707q0 12 9 21t21 9t21.5 -9t9.5 -21v-1475q0 -11 -9.5 -20t-21.5 -9t-21 9t-9 20v707h-615v-707q0 -11 -9 -20t-21 -9t-21.5 9t-9.5 20z" />
<glyph unicode="I" horiz-adv-x="983" d="M164 0q0 12 9.5 21.5t21.5 9.5h266v1413h-266q-12 0 -21.5 9.5t-9.5 21.5t9.5 21t21.5 9h593q12 0 21.5 -9t9.5 -21t-9.5 -21.5t-21.5 -9.5h-266v-1413h266q12 0 21.5 -9.5t9.5 -21.5q0 -11 -9.5 -20t-21.5 -9h-593q-12 0 -21.5 9t-9.5 20z" />
<glyph unicode="J" d="M133 399q0 12 9.5 21.5t21.5 9.5t21.5 -9.5t9.5 -21.5q0 -157 99 -268t238 -111q140 0 239 111t99 268v1076q0 12 9.5 21t21.5 9t21.5 -9t9.5 -21v-1076q0 -183 -117 -310.5t-283 -127.5t-282.5 127.5t-116.5 310.5z" />
<glyph unicode="K" d="M164 0v1475q0 12 9.5 21t21.5 9t21 -9t9 -21v-693l654 713q9 9 21 10h3q11 0 19 -8q12 -12 12 -23q0 -10 -10 -20l-658 -717l658 -717q9 -9 9 -19t-11 -21q-9 -9 -21 -9q-11 0 -22 11l-654 710v-692q0 -11 -9 -20t-21 -9t-21.5 9t-9.5 20z" />
<glyph unicode="L" d="M164 0v1475q0 12 9.5 21t21.5 9t21 -9t9 -21v-1444h645q12 0 21.5 -9.5t9.5 -21.5q0 -11 -9.5 -20t-21.5 -9h-675q-12 0 -21.5 9t-9.5 20z" />
<glyph unicode="M" horiz-adv-x="1187" d="M164 0v1475q0 23 22 30q4 1 8 1q19 0 27 -17l373 -688l373 688q9 16 28 16h6q23 -8 23 -30v-1475q0 -11 -9.5 -20t-21.5 -9t-21 9t-9 20v1354l-342 -631q-6 -16 -27 -16t-27 16l-342 631v-1354q0 -11 -9 -20t-21 -9t-21.5 9t-9.5 20z" />
<glyph unicode="N" d="M164 0v1475q0 12 9.5 21t21.5 9h20q18 0 29 -18l596 -1385v1373q0 12 9 21t21 9t21.5 -9t9.5 -21v-1475q0 -11 -9.5 -20t-21.5 -9h-20q-18 0 -29 19l-596 1382v-1372q0 -11 -9 -20t-21 -9t-21.5 9t-9.5 20z" />
<glyph unicode="O" d="M133 737q0 393 99 586t300 193t300.5 -193t99.5 -586q0 -392 -99.5 -584t-300.5 -192t-300 192t-99 584zM195 737q0 -362 83.5 -539.5t253.5 -177.5t254 177.5t84 539.5t-84 539.5t-254 177.5t-253.5 -177.5t-83.5 -539.5z" />
<glyph unicode="P" d="M164 0v1475q0 12 9.5 21t21.5 9h337q166 0 283 -116.5t117 -282.5t-117 -282.5t-283 -116.5h-307v-707q0 -11 -9 -20t-21 -9t-21.5 9t-9.5 20zM225 768h307q140 0 239 99t99 239t-99 239t-239 99h-307v-676z" />
<glyph unicode="Q" d="M133 737q0 393 99 586t300 193t300.5 -193t99.5 -586q0 -420 -113 -612l105 -102q8 -9 8 -21.5t-8 -21.5q-9 -9 -23 -9q-13 0 -22 9l-97 94q-93 -113 -250 -113q-201 0 -300 192t-99 584zM195 737q0 -362 83.5 -539.5t253.5 -177.5q128 0 207 99l-229 227q-8 9 -8 22.5 t8 22.5q9 7 22.5 7t22.5 -7l217 -219q98 174 98 565q0 362 -84 539.5t-254 177.5t-253.5 -177.5t-83.5 -539.5z" />
<glyph unicode="R" d="M164 0v1475q0 12 9.5 21t21.5 9h337q166 0 283 -116.5t117 -282.5q0 -153 -101 -265.5t-251 -129.5l348 -697q6 -11 2 -22.5t-15 -16.5q-8 -4 -14 -4q-20 0 -27 17l-360 719h-289v-707q0 -11 -9 -20t-21 -9t-21.5 9t-9.5 20zM225 768h307q140 0 239 99t99 239t-99 239 t-239 99h-307v-676z" />
<glyph unicode="S" d="M133 379q0 12 9.5 21.5t21.5 9.5t21.5 -9.5t9.5 -21.5q0 -148 99 -253.5t238 -105.5t238.5 105.5t99.5 253.5q0 98 -47 181.5t-127 131.5l-325 193q-76 44 -121 123t-45 170q0 140 96 239t231 99t231.5 -99.5t96.5 -238.5q0 -12 -9.5 -21.5t-21.5 -9.5t-21 9.5t-9 21.5 q0 114 -78.5 195t-188.5 81t-188 -81t-78 -195q0 -75 36 -139.5t99 -102.5l326 -191q95 -55 150 -153.5t55 -212.5q0 -173 -117 -295.5t-283 -122.5t-282.5 122.5t-116.5 295.5z" />
<glyph unicode="T" d="M164 1475q0 12 9.5 21t21.5 9h675q12 0 21.5 -9t9.5 -21t-9.5 -21.5t-21.5 -9.5h-307v-1444q0 -11 -9.5 -20t-21.5 -9t-21 9t-9 20v1444h-307q-12 0 -21.5 9.5t-9.5 21.5z" />
<glyph unicode="U" d="M133 399v1076q0 12 9.5 21t21.5 9t21.5 -9t9.5 -21v-1076q0 -157 99 -268t238 -111q140 0 239 111t99 268v1076q0 12 9.5 21t21.5 9t21.5 -9t9.5 -21v-1076q0 -183 -117 -310.5t-283 -127.5t-282.5 127.5t-116.5 310.5z" />
<glyph unicode="V" d="M133 1466q-1 4 -1 8q0 8 5 16q7 12 19 15q4 1 8 1q8 0 16 -4q12 -6 15 -19l337 -1395l338 1395q2 13 14 19q8 4 17 4q4 0 8 -1q12 -3 19 -15q5 -8 5 -16q0 -4 -1 -8l-359 -1472q-8 -23 -30 -23h-21q-22 0 -30 23z" />
<glyph unicode="W" horiz-adv-x="1146" d="M102 1470q-2 12 6.5 23t20.5 12h5q9 0 18 -6q11 -8 12 -20l166 -1409l192 1042q7 25 31 25h41q24 0 31 -25l192 -1042l166 1409q1 12 12 20q9 6 18 6h5q12 -1 20 -12t6 -23l-174 -1472q-2 -11 -10 -19t-20 -8h-41q-24 0 -31 25l-195 1053l-194 -1053q-7 -25 -31 -25h-41 q-12 0 -20.5 8t-10.5 19z" />
<glyph unicode="X" d="M135 -8q-2 5 -2 9q0 7 4 13l361 723l-361 723q-4 7 -4 14q0 5 2 10q4 12 15 17q8 4 15 4q5 1 9 -1q12 -4 16 -15l342 -682l342 682q5 11 17 15q4 1 9 1l15 -4q11 -5 15 -17q2 -5 2 -10q0 -7 -4 -14l-361 -723l361 -723q4 -7 4 -13q0 -5 -2 -9q-4 -12 -15 -17 q-8 -4 -14 -4q-20 0 -27 17l-342 680l-342 -680q-7 -17 -26 -17q-6 0 -14 4q-11 5 -15 17z" />
<glyph unicode="Y" d="M135 1484q4 12 15 17q8 4 15 4q4 0 9 -1q11 -4 16 -15l342 -682l342 682q5 11 17 15q4 1 9 1l15 -4q11 -5 15 -17q2 -5 2 -10q0 -7 -4 -14l-365 -731v-729q0 -11 -9.5 -20t-21.5 -9t-21 9t-9 20v729l-365 731q-4 7 -4 14q0 5 2 10z" />
<glyph unicode="Z" d="M135 12l686 1432h-626q-12 0 -21.5 9.5t-9.5 21.5t9.5 21t21.5 9h675q16 0 27 -14q8 -17 2 -29l-686 -1431h688q12 0 21.5 -9.5t9.5 -21.5q0 -11 -9.5 -20t-21.5 -9h-737q-16 0 -27 15q-4 9 -4 16q0 5 2 10z" />
<glyph unicode="[" horiz-adv-x="737" d="M174 0v1475q0 12 9.5 21t21.5 9h327q12 0 21.5 -9t9.5 -21t-9.5 -21.5t-21.5 -9.5h-296v-1413h296q12 0 21.5 -9.5t9.5 -21.5q0 -11 -9.5 -20t-21.5 -9h-327q-12 0 -21.5 9t-9.5 20z" />
<glyph unicode="\" d="M165.5 1484.5q4.5 12.5 16.5 18.5q10 5 22.5 0.5t18.5 -16.5l676 -1475q5 -9 0.5 -21t-16.5 -18q-4 -2 -13 -2q-18 0 -28 19l-676 1472q-5 10 -0.5 22.5z" />
<glyph unicode="]" horiz-adv-x="737" d="M174 0q0 12 9.5 21.5t21.5 9.5h297v1413h-297q-12 0 -21.5 9.5t-9.5 21.5t9.5 21t21.5 9h327q12 0 21.5 -9t9.5 -21v-1475q0 -11 -9.5 -20t-21.5 -9h-327q-12 0 -21.5 9t-9.5 20z" />
<glyph unicode="^" d="M165 924.5q-3 13.5 3 23.5l328 543q10 14 26 14h21q15 0 26 -14l328 -543q6 -10 3 -23.5t-13 -19.5q-12 -4 -17 -4q-16 0 -26 14l-312 517l-311 -517q-6 -10 -19.5 -13t-23.5 3t-13 19.5z" />
<glyph unicode="_" d="M164 -121q0 12 9.5 21.5t21.5 9.5h675q12 0 21.5 -9.5t9.5 -21.5t-9.5 -21.5t-21.5 -9.5h-675q-12 0 -21.5 9.5t-9.5 21.5z" />
<glyph unicode="`" horiz-adv-x="737" d="M175 1481q3 13 13 20q10 6 23 3t20 -13l215 -338q6 -10 3 -23t-13 -20q-8 -4 -16 -4q-19 0 -27 14l-215 338q-6 10 -3 23z" />
<glyph unicode="a" horiz-adv-x="1044" d="M113 399q0 183 116.5 312t282.5 129q105 0 194 -55.5t144 -151.5v166q0 12 9.5 21t21.5 9t21 -9t9 -21v-799q0 -11 -9 -20t-21 -9t-21.5 9t-9.5 20v166q-55 -95 -143.5 -150t-194.5 -55q-166 0 -282.5 127.5t-116.5 310.5zM174 399q0 -157 99 -268t239 -111t239 111 t99 268t-99 268t-239 111t-239 -111t-99 -268z" />
<glyph unicode="b" horiz-adv-x="1044" d="M133 0v1475q0 12 9.5 21t21.5 9t21.5 -9t9.5 -21v-842q55 96 143.5 151.5t193.5 55.5q166 0 283 -129t117 -312t-117 -310.5t-283 -127.5q-106 0 -194 55t-143 150v-166q0 -11 -9.5 -20t-21.5 -9t-21.5 9t-9.5 20zM195 399q0 -157 99 -268t238 -111q140 0 239 111t99 268 t-99 268t-239 111q-139 0 -238 -111t-99 -268z" />
<glyph unicode="c" horiz-adv-x="1024" d="M133 399q0 183 116.5 312t282.5 129q107 0 200 -59.5t147 -162.5q4 -7 4 -13q0 -5 -2 -9q-4 -12 -15 -18q-12 -6 -24.5 -2.5t-18.5 14.5q-44 87 -122.5 137.5t-168.5 50.5q-139 0 -238 -111t-99 -268t99 -268t238 -111q90 0 168.5 51t122.5 138q6 11 18.5 14.5t24.5 -2.5 q11 -6 15 -18q2 -5 2 -9q0 -7 -4 -14q-54 -102 -146.5 -160.5t-200.5 -58.5q-166 0 -282.5 127.5t-116.5 310.5z" />
<glyph unicode="d" horiz-adv-x="1044" d="M113 399q0 183 116.5 312t282.5 129q105 0 194 -55.5t144 -151.5v842q0 12 9.5 21t21.5 9t21 -9t9 -21v-1475q0 -11 -9 -20t-21 -9t-21.5 9t-9.5 20v166q-55 -95 -143.5 -150t-194.5 -55q-166 0 -282.5 127.5t-116.5 310.5zM174 399q0 -157 99 -268t239 -111t239 111 t99 268t-99 268t-239 111t-239 -111t-99 -268z" />
<glyph unicode="e" horiz-adv-x="1024" d="M113 399q0 183 116.5 312t282.5 129t282.5 -129t116.5 -312q0 -12 -9 -21t-21 -9h-705q9 -146 106.5 -247.5t229.5 -101.5q154 0 254 109q8 9 21 10t22 -8q9 -8 10 -21t-8 -22q-115 -127 -299 -127q-166 0 -282.5 127.5t-116.5 310.5zM176 430h672q-9 146 -106.5 247 t-229.5 101t-229.5 -101t-106.5 -247z" />
<glyph unicode="f" horiz-adv-x="983" d="M164 870q0 12 9.5 21.5t21.5 9.5h266v389q0 89 63 152t152 63h112q12 0 21.5 -9t9.5 -21t-9.5 -21.5t-21.5 -9.5h-112q-63 0 -108.5 -45.5t-45.5 -108.5v-389h266q12 0 21.5 -9.5t9.5 -21.5t-9.5 -21t-21.5 -9h-266v-840q0 -11 -9 -20t-21 -9t-21.5 9t-9.5 20v840h-266 q-12 0 -21.5 9t-9.5 21z" />
<glyph unicode="g" horiz-adv-x="1044" d="M113 440q0 166 116.5 283t282.5 117q105 0 194 -51t144 -138v148q0 12 9.5 21t21.5 9t21 -9t9 -21v-768q0 -165 -116.5 -281.5t-282.5 -116.5q-149 0 -264 101q-22 19 -4 45q20 20 45 2q95 -86 223 -86q139 0 238.5 99t99.5 237v198q-55 -87 -144 -137.5t-194 -50.5 q-166 0 -282.5 116.5t-116.5 282.5zM174 440q0 -140 99 -239t239 -99t239 99t99 239t-99 239t-239 99t-239 -99t-99 -239z" />
<glyph unicode="h" d="M164 0v1475q0 12 9.5 21t21.5 9t21 -9t9 -21v-801q51 77 131.5 121.5t175.5 44.5q152 0 260.5 -108.5t108.5 -260.5v-471q0 -11 -9.5 -20t-21.5 -9t-21 9t-9 20v471q0 127 -90 217t-218 90t-217.5 -90t-89.5 -217v-471q0 -11 -9 -20t-21 -9t-21.5 9t-9.5 20z" />
<glyph unicode="i" horiz-adv-x="983" d="M164 0q0 12 9.5 21.5t21.5 9.5h266v809h-185q-12 0 -21 9t-9 21t9 21.5t21 9.5h216q12 0 21 -9.5t9 -21.5v-839h266q12 0 21.5 -9.5t9.5 -21.5q0 -11 -9.5 -20t-21.5 -9h-593q-12 0 -21.5 9t-9.5 20zM461 1137v338q0 12 9.5 21t21.5 9t21 -9t9 -21v-338q0 -12 -9 -21.5 t-21 -9.5t-21.5 9.5t-9.5 21.5z" />
<glyph unicode="j" horiz-adv-x="727" d="M133 -336q0 12 9.5 21.5t21.5 9.5q139 0 238.5 111t99.5 266v768h-185q-12 0 -21 9t-9 21t9 21.5t21 9.5h215q12 0 21.5 -9.5t9.5 -21.5v-798q0 -119 -53 -220t-145 -160t-201 -59q-12 0 -21.5 9.5t-9.5 21.5zM502 1137v338q0 12 9 21t21 9t21.5 -9t9.5 -21v-338 q0 -12 -9.5 -21.5t-21.5 -9.5t-21 9.5t-9 21.5z" />
<glyph unicode="k" d="M164 0v1475q0 12 9.5 21t21.5 9t21 -9t9 -21v-1035l660 396q10 6 23.5 2.5t19.5 -13.5q4 -7 4 -15q0 -4 -1 -8q-3 -14 -13 -20l-633 -376l633 -379q10 -7 13 -19q1 -4 1 -8q0 -8 -4 -14q-11 -15 -27 -15q-4 0 -16 4l-660 394v-369q0 -11 -9 -20t-21 -9t-21.5 9t-9.5 20z " />
<glyph unicode="l" horiz-adv-x="645" d="M164 184v1291q0 12 9.5 21t21.5 9t21 -9t9 -21v-1291q0 -63 45.5 -108t108.5 -45h113q12 0 21 -9.5t9 -21.5q0 -11 -9 -20t-21 -9h-113q-89 0 -152 62t-63 151z" />
<glyph unicode="m" horiz-adv-x="1187" d="M164 0v799q0 12 9.5 21t21.5 9t21 -9t9 -21v-33q71 74 170 74q62 0 115.5 -32t83.5 -85q30 53 83.5 85t117.5 32q95 0 162 -67.5t67 -162.5v-610q0 -11 -9.5 -20t-21.5 -9t-21 9t-9 20v610q0 69 -49.5 118.5t-118.5 49.5q-70 0 -120 -49.5t-50 -118.5v-610 q0 -11 -9.5 -20t-21.5 -9t-21.5 9t-9.5 20v610q0 69 -49.5 118.5t-118.5 49.5q-70 0 -120 -49.5t-50 -118.5v-610q0 -11 -9 -20t-21 -9t-21.5 9t-9.5 20z" />
<glyph unicode="n" d="M164 0v799q0 12 9.5 21t21.5 9t21 -9t9 -21v-125q51 77 131.5 121.5t175.5 44.5q152 0 260.5 -108.5t108.5 -260.5v-471q0 -11 -9.5 -20t-21.5 -9t-21 9t-9 20v471q0 127 -90 217t-218 90t-217.5 -90t-89.5 -217v-471q0 -11 -9 -20t-21 -9t-21.5 9t-9.5 20z" />
<glyph unicode="o" horiz-adv-x="1024" d="M113 399q0 183 116.5 312t282.5 129t282.5 -129t116.5 -312t-116.5 -310.5t-282.5 -127.5t-282.5 127.5t-116.5 310.5zM174 399q0 -157 99 -268t239 -111t239 111t99 268t-99 268t-239 111t-239 -111t-99 -268z" />
<glyph unicode="p" horiz-adv-x="1044" d="M133 -336v735v400q0 12 9.5 21t21.5 9t21.5 -9t9.5 -21v-166q55 96 143.5 151.5t193.5 55.5q166 0 283 -129t117 -312t-117 -310.5t-283 -127.5q-106 0 -194 55t-143 150v-502q0 -12 -9.5 -21.5t-21.5 -9.5t-21.5 9.5t-9.5 21.5zM195 399q0 -157 99 -268t238 -111 q140 0 239 111t99 268t-99 268t-239 111q-139 0 -238 -111t-99 -268z" />
<glyph unicode="q" horiz-adv-x="1044" d="M113 399q0 183 116.5 312t282.5 129q105 0 194 -55.5t144 -151.5v166q0 12 9.5 21t21.5 9t21 -9t9 -21v-1135q0 -12 -9 -21.5t-21 -9.5t-21.5 9.5t-9.5 21.5v502q-55 -95 -143.5 -150t-194.5 -55q-166 0 -282.5 127.5t-116.5 310.5zM174 399q0 -157 99 -268t239 -111 t239 111t99 268t-99 268t-239 111t-239 -111t-99 -268z" />
<glyph unicode="r" horiz-adv-x="901" d="M164 0v799q0 12 9.5 21t21.5 9t21 -9t9 -21v-283q73 147 213.5 235.5t309.5 88.5q12 0 21 -9.5t9 -21.5t-9 -21.5t-21 -9.5q-142 0 -262.5 -69.5t-190.5 -190t-70 -262.5v-256q0 -11 -9 -20t-21 -9t-21.5 9t-9.5 20z" />
<glyph unicode="s" d="M133 225q0 12 9.5 21.5t21.5 9.5t21.5 -9.5t9.5 -21.5q0 -83 100 -144t237 -61q44 0 84.5 3.5t88.5 16t83 32.5t58.5 56t23.5 83q0 67 -34.5 107.5t-108.5 60.5l-375 102q-157 42 -157 170q0 24 6.5 46.5t28 50t56.5 46.5t98.5 32.5t147.5 13.5q218 0 328 -101 q9 -8 10 -21t-8 -22q-8 -9 -21 -10t-22 8q-94 84 -287 84q-46 0 -87.5 -4.5t-87.5 -17t-73.5 -39.5t-27.5 -66q0 -79 111 -110l376 -103q189 -50 189 -227q0 -120 -104.5 -185t-295.5 -65q-168 0 -283.5 76t-115.5 188z" />
<glyph unicode="t" horiz-adv-x="983" d="M164 870q0 12 9.5 21.5t21.5 9.5h266v574q0 12 9.5 21t21.5 9t21 -9t9 -21v-574h266q12 0 21.5 -9.5t9.5 -21.5t-9.5 -21t-21.5 -9h-266v-656q0 -63 45.5 -108t108.5 -45h112q12 0 21.5 -9.5t9.5 -21.5q0 -11 -9.5 -20t-21.5 -9h-112q-89 0 -152 62t-63 151v656h-266 q-12 0 -21.5 9t-9.5 21z" />
<glyph unicode="u" d="M164 328v471q0 12 9.5 21t21.5 9t21 -9t9 -21v-471q0 -128 90 -218t217 -90q128 0 218 90t90 218v471q0 12 9 21t21 9t21.5 -9t9.5 -21v-799q0 -11 -9.5 -20t-21.5 -9t-21 9t-9 20v125q-50 -76 -131.5 -120t-176.5 -44q-152 0 -260 107.5t-108 259.5z" />
<glyph unicode="v" d="M135 786q-2 6 -2.5 11.5t2.5 11.5q5 12 17 18q5 3 11 3q5 0 11 -2q12 -4 19 -17l339 -760l340 760q6 13 18 17q6 2 12 2t11 -3q12 -6 17 -18q2 -6 2 -11.5t-2 -11.5l-359 -796q-9 -19 -28 -19h-21q-18 0 -28 19z" />
<glyph unicode="w" d="M63 791q-2 5 -2 9q1 8 5 14q6 10 18 13q5 2 9 2q7 0 14 -4q11 -6 14 -18l207 -766l155 551q3 22 29 22h41q26 0 29 -22l155 -551l207 766q3 12 14 18q7 4 14 4q5 0 9 -2q12 -3 18 -13q4 -6 4 -14q0 -5 -2 -9l-215 -797q-2 -9 -10 -16t-18 -7h-41q-11 0 -19.5 6.5 t-9.5 16.5l-156 549l-155 -549q-1 -10 -9.5 -16.5t-19.5 -6.5h-41q-10 0 -18 7t-10 16z" />
<glyph unicode="x" d="M143 821q8 8 19 8h2q12 -1 22 -10l346 -375l347 375q9 9 21 10h3q11 0 19 -8q12 -12 12 -23q0 -10 -10 -20l-351 -379l351 -379q9 -9 9 -19t-11 -21q-9 -9 -21 -9q-11 0 -22 11l-347 372l-346 -372q-11 -11 -22 -11q-12 0 -21 9q-11 11 -11 21q0 9 9 19l351 379l-351 379 q-8 8 -8 19q0 14 10 24z" />
<glyph unicode="y" d="M135 786q-3 6 -3 11.5t3 11.5q5 12 17 18q5 3 11 3t11 -2q13 -5 19 -17l339 -737l340 737q6 12 18 17q6 2 12 2t11 -3q12 -6 17 -18q2 -6 2 -11.5t-2 -11.5l-436 -942q-34 -72 -102.5 -115.5t-147.5 -43.5h-49q-12 0 -21.5 9t-9.5 21t9.5 21.5t21.5 9.5h49q62 0 115 34 t79 91l60 129z" />
<glyph unicode="z" d="M135 -10q-2 6 -2 11q0 10 8 19l662 748h-608q-12 0 -21.5 9.5t-9.5 21.5t9.5 21t21.5 9h675q20 0 29 -18q8 -19 -6 -33l-662 -747h670q12 0 21.5 -9.5t9.5 -21.5q0 -11 -9.5 -20t-21.5 -9h-737q-20 0 -29 19z" />
<glyph unicode="{" horiz-adv-x="757" d="M164 737q0 12 9.5 21.5t21.5 9.5q63 0 108 45.5t45 108.5v368q0 89 63 152t152 63q12 0 21.5 -9t9.5 -21t-9.5 -21.5t-21.5 -9.5q-63 0 -108 -45.5t-45 -108.5v-368q0 -57 -29 -107t-76 -78q47 -29 76 -78t29 -106v-369q0 -63 45 -108t108 -45q12 0 21.5 -9.5t9.5 -21.5 q0 -11 -9.5 -20t-21.5 -9q-89 0 -152 62t-63 151v369q0 63 -45 108.5t-108 45.5q-12 0 -21.5 9t-9.5 21z" />
<glyph unicode="|" horiz-adv-x="389" d="M164 0v1475q0 12 9.5 21t21.5 9t21 -9t9 -21v-1475q0 -11 -9 -20t-21 -9t-21.5 9t-9.5 20z" />
<glyph unicode="}" horiz-adv-x="757" d="M164 0q0 12 9.5 21.5t21.5 9.5q63 0 108 45t45 108v369q0 57 29 106t76 78q-47 28 -76 78t-29 107v368q0 63 -45 108.5t-108 45.5q-12 0 -21.5 9.5t-9.5 21.5t9.5 21t21.5 9q89 0 152 -63t63 -152v-368q0 -63 45 -108.5t108 -45.5q12 0 21.5 -9.5t9.5 -21.5t-9.5 -21 t-21.5 -9q-63 0 -108 -45.5t-45 -108.5v-369q0 -89 -63 -151t-152 -62q-12 0 -21.5 9t-9.5 20z" />
<glyph unicode="~" d="M165 738.5q-3 13.5 3 23.5q68 104 190 104q99 0 168 -75l58 -66q50 -53 123 -53q42 0 79 19t58 54q8 11 20 14t23 -3q10 -6 13 -19.5t-3 -23.5q-67 -103 -190 -103q-100 0 -168 74l-58 66q-52 55 -123 55q-41 0 -78 -20.5t-59 -55.5q-7 -10 -20 -13t-23 3t-13 19.5z" />
<glyph unicode="&#xa5;" d="M135 1484q4 12 15 17q12 6 23.5 2.5t16.5 -14.5l342 -682l342 682q5 11 17 14.5t24 -2.5q11 -5 15 -17t-2 -24l-346 -692h258q12 0 21 -9.5t9 -21.5t-9 -21t-21 -9h-277v-277h277q12 0 21 -9.5t9 -21.5t-9 -21t-21 -9h-277v-369q0 -11 -9.5 -20t-21.5 -9t-21 9t-9 20v369 h-277q-12 0 -21 9t-9 21t9 21.5t21 9.5h277v277h-277q-12 0 -21 9t-9 21t9 21.5t21 9.5h258l-346 692q-6 12 -2 24z" />
<glyph unicode="&#xa9;" horiz-adv-x="1126" d="M133 737q0 117 57.5 216t156.5 156.5t216 57.5t216 -57.5t156.5 -156.5t57.5 -216t-57.5 -216t-156.5 -156.5t-216 -57.5t-216 57.5t-156.5 156.5t-57.5 216zM195 737q0 -152 108 -260t260 -108t260.5 108t108.5 260t-108.5 260.5t-260.5 108.5t-260 -108.5t-108 -260.5z M287 737q0 114 81 195.5t195 81.5q116 0 195 -82q9 -8 9 -21t-9 -22q-8 -9 -21 -9t-22 9q-63 63 -152 63t-152 -63t-63 -152t63 -152t152 -63q88 0 152 64q9 9 22 9t21 -9q9 -9 9 -22.5t-9 -20.5q-79 -82 -195 -82q-114 0 -195 81t-81 195z" />
<glyph unicode="&#xad;" d="M164 737q0 12 9.5 21.5t21.5 9.5h675q12 0 21.5 -9.5t9.5 -21.5t-9.5 -21t-21.5 -9h-675q-12 0 -21.5 9t-9.5 21z" />
<glyph unicode="&#xae;" d="M133 1116q0 166 116.5 283t282.5 117t283 -117t117 -283t-117 -282.5t-283 -116.5t-282.5 116.5t-116.5 282.5zM195 1116q0 -140 99 -239t238 -99q140 0 239 99t99 239t-99 239t-239 99q-139 0 -238 -99t-99 -239zM358 870v502q0 12 9.5 21.5t21.5 9.5h164 q67 0 115.5 -48.5t48.5 -115.5q0 -59 -37.5 -104t-93.5 -56l116 -192q6 -10 3 -23.5t-13 -19.5q-12 -4 -16 -4q-16 0 -27 14l-133 221h-96v-205q0 -12 -9.5 -21t-21.5 -9t-21.5 9t-9.5 21zM420 1137h133q43 0 72.5 29.5t29.5 72.5t-29.5 72.5t-72.5 29.5h-133v-204z" />
<glyph unicode="&#xb7;" d="M369 604v266q0 12 9 21.5t21 9.5h267q12 0 21 -9.5t9 -21.5v-266q0 -12 -9 -21.5t-21 -9.5h-267q-12 0 -21 9.5t-9 21.5zM430 635h205v205h-205v-205z" />
<glyph unicode="&#xdf;" horiz-adv-x="1228" d="M158 729q0 182 125 313q-51 23 -71.5 81.5t-0.5 121.5q19 54 60.5 87.5t90.5 33.5q23 0 41 -6q59 -19 82 -82q22 -54 7 -109q70 17 122 17q53 0 123 -17q-15 56 6 109q23 63 82 82q18 6 41 6q49 0 91 -33.5t61 -87.5q20 -63 -0.5 -121.5t-71.5 -81.5q125 -131 125 -313 q0 -101 -43 -192.5t-121 -157.5q33 -45 33 -117q0 -66 -26 -109.5t-66 -43.5t-66 43.5t-26 109.5q0 23 2 33q-74 -23 -144 -23q-69 0 -143 23q2 -10 2 -33q0 -66 -26 -109.5t-66 -43.5t-66 43.5t-26 109.5q0 72 33 117q-78 66 -121 157.5t-43 192.5zM219 719 q3 -90 43.5 -169.5t112.5 -133.5h6q40 0 65 -45q78 -37 168 -37t168 37q25 45 66 45h6q72 54 112.5 133.5t43.5 169.5q-60 -59 -165.5 -93t-230.5 -34t-230 34t-165 93zM227 813q8 -18 29 -43q41 139 139 225q15 13 35.5 12t34.5 -16q12 -15 10.5 -35.5t-16.5 -33.5 q-1 -2 -10 -11q53 -27 73 -34q4 1 9.5 4t12 7t9.5 5q27 20 39 25q-25 14 -25 40q0 20 13.5 34t33.5 14t34 -14t14 -34q0 -26 -25 -40q12 -5 39 -25q3 -1 9.5 -5t12 -7t9.5 -4q20 7 73 34q-9 9 -10 11q-15 13 -16.5 33.5t10.5 35.5q14 15 34.5 16t35.5 -12q98 -86 139 -225 q19 22 28 43q-28 134 -135 221q-49 8 -90 56q-75 34 -162 34q-86 0 -161 -34q-41 -47 -91 -56q-107 -87 -135 -221zM269 1144q13 -38 46 -48q12 -4 21 -4q29 0 55.5 22t38.5 57q13 47 -2 84q-12 35 -45 45q-15 5 -21 5q-29 0 -55.5 -22.5t-36.5 -57.5q-14 -43 -1 -81z M340 711q123 -58 274 -58q152 0 275 58q-22 89 -68 153q-92 -51 -116 -51q-17 0 -62 31q-4 2 -14.5 8t-14.5 8q-4 -2 -14 -8t-14 -8q-45 -31 -62 -31q-24 0 -116 51q-46 -64 -68 -153zM350 262q0 -27 6 -49.5t13 -32.5t12 -10t12 10t13 32.5t6 49.5t-6 49.5t-13 32.5t-12 10 t-12 -10t-13 -32.5t-6 -49.5zM799 1171q12 -35 38.5 -57t55.5 -22q8 0 20 4q33 10 46 48t-1 81q-10 35 -36.5 57.5t-55.5 22.5q-5 0 -20 -5q-33 -10 -45 -45q-15 -37 -2 -84zM817 262q0 -27 6 -49.5t13 -32.5t12 -10t12 10t13 32.5t6 49.5t-6 49.5t-13 32.5t-12 10t-12 -10 t-13 -32.5t-6 -49.5z" />
<glyph unicode="&#x2000;" horiz-adv-x="793" />
<glyph unicode="&#x2001;" horiz-adv-x="1587" />
<glyph unicode="&#x2002;" horiz-adv-x="793" />
<glyph unicode="&#x2003;" horiz-adv-x="1587" />
<glyph unicode="&#x2004;" horiz-adv-x="529" />
<glyph unicode="&#x2005;" horiz-adv-x="396" />
<glyph unicode="&#x2006;" horiz-adv-x="264" />
<glyph unicode="&#x2007;" horiz-adv-x="264" />
<glyph unicode="&#x2008;" horiz-adv-x="198" />
<glyph unicode="&#x2009;" horiz-adv-x="317" />
<glyph unicode="&#x200a;" horiz-adv-x="88" />
<glyph unicode="&#x2010;" d="M164 737q0 12 9.5 21.5t21.5 9.5h675q12 0 21.5 -9.5t9.5 -21.5t-9.5 -21t-21.5 -9h-675q-12 0 -21.5 9t-9.5 21z" />
<glyph unicode="&#x2011;" d="M164 737q0 12 9.5 21.5t21.5 9.5h675q12 0 21.5 -9.5t9.5 -21.5t-9.5 -21t-21.5 -9h-675q-12 0 -21.5 9t-9.5 21z" />
<glyph unicode="&#x2012;" d="M164 737q0 12 9.5 21.5t21.5 9.5h675q12 0 21.5 -9.5t9.5 -21.5t-9.5 -21t-21.5 -9h-675q-12 0 -21.5 9t-9.5 21z" />
<glyph unicode="&#x2013;" d="M164 737q0 12 9.5 21.5t21.5 9.5h675q12 0 21.5 -9.5t9.5 -21.5t-9.5 -21t-21.5 -9h-675q-12 0 -21.5 9t-9.5 21z" />
<glyph unicode="&#x2014;" horiz-adv-x="1146" d="M82 737q0 12 9.5 21.5t21.5 9.5h921q12 0 21.5 -9.5t9.5 -21.5t-9.5 -21t-21.5 -9h-921q-12 0 -21.5 9t-9.5 21z" />
<glyph unicode="&#x2018;" horiz-adv-x="563" d="M164 1085v205q0 89 63 152t152 63q12 0 21.5 -9t9.5 -21t-9.5 -21.5t-21.5 -9.5q-63 0 -108.5 -45.5t-45.5 -108.5v-205q0 -12 -9 -21t-21 -9t-21.5 9t-9.5 21z" />
<glyph unicode="&#x2019;" horiz-adv-x="563" d="M154 1085q0 12 9 21.5t21 9.5q63 0 108.5 45.5t45.5 108.5v205q0 12 9.5 21t21.5 9t21 -9t9 -21v-205q0 -89 -63 -152t-152 -63q-12 0 -21 9t-9 21z" />
<glyph unicode="&#x201a;" horiz-adv-x="737" d="M154 -182q0 12 9 21t21 9q63 0 108.5 45t45.5 107v205q0 12 9.5 21.5t21.5 9.5t21 -9.5t9 -21.5v-205q0 -88 -63 -150.5t-152 -62.5q-12 0 -21 9.5t-9 21.5z" />
<glyph unicode="&#x201c;" horiz-adv-x="839" d="M154 1085v205q0 89 63 152t152 63q12 0 21 -9t9 -21t-9 -21.5t-21 -9.5q-63 0 -108.5 -45.5t-45.5 -108.5v-205q0 -12 -9.5 -21t-21.5 -9t-21 9t-9 21zM430 1085v205q0 89 63 152t152 63q12 0 21.5 -9t9.5 -21t-9.5 -21.5t-21.5 -9.5q-63 0 -108 -45.5t-45 -108.5v-205 q0 -12 -9.5 -21t-21.5 -9t-21.5 9t-9.5 21z" />
<glyph unicode="&#x201d;" horiz-adv-x="839" d="M164 1085q0 12 9.5 21.5t21.5 9.5q63 0 108 45.5t45 108.5v205q0 12 9.5 21t21.5 9t21.5 -9t9.5 -21v-205q0 -89 -63 -152t-152 -63q-12 0 -21.5 9t-9.5 21zM440 1085q0 12 9.5 21.5t21.5 9.5q63 0 108.5 45.5t45.5 108.5v205q0 12 9 21t21 9t21.5 -9t9.5 -21v-205 q0 -89 -63 -152t-152 -63q-12 0 -21.5 9t-9.5 21z" />
<glyph unicode="&#x201e;" horiz-adv-x="839" d="M164 -182q0 12 9.5 21t21.5 9q63 0 108 45t45 107v205q0 12 9.5 21.5t21.5 9.5t21.5 -9.5t9.5 -21.5v-205q0 -88 -63 -150.5t-152 -62.5q-12 0 -21.5 9.5t-9.5 21.5zM440 -182q0 12 9.5 21t21.5 9q63 0 108.5 45t45.5 107v205q0 12 9 21.5t21 9.5t21.5 -9.5t9.5 -21.5 v-205q0 -88 -63 -150.5t-152 -62.5q-12 0 -21.5 9.5t-9.5 21.5z" />
<glyph unicode="&#x2022;" horiz-adv-x="532" d="M266 -90q0 22 14.5 36.5t36.5 14.5t37 -14.5t15 -36.5t-15 -36.5t-37 -14.5t-36.5 14.5t-14.5 36.5z" />
<glyph unicode="&#x202f;" horiz-adv-x="317" />
<glyph unicode="&#x205f;" horiz-adv-x="396" />
<glyph unicode="&#x2122;" d="M133 1475q0 12 9.5 21t21.5 9h287q12 0 21 -9t9 -21t-9 -21.5t-21 -9.5h-113v-676q0 -12 -9.5 -21.5t-21.5 -9.5t-21.5 9.5t-9.5 21.5v676h-112q-12 0 -21.5 9.5t-9.5 21.5zM502 768v707q0 23 24 30q26 4 35 -18l146 -309l145 309q9 22 35 18q24 -7 24 -30v-707 q0 -12 -9 -21.5t-21 -9.5t-21.5 9.5t-9.5 21.5v569l-115 -243q-9 -19 -28 -19t-29 19l-115 243v-569q0 -12 -9.5 -21.5t-21.5 -9.5t-21 9.5t-9 21.5z" />
<glyph unicode="&#x25fc;" horiz-adv-x="829" d="M0 0v829h829v-829h-829z" />
</font>
</defs>
</svg>
